<?xml version="1.0" standalone="no"?>
<!DOCTYPE svg PUBLIC "-//W3C//DTD SVG 1.1//EN" "http://www.w3.org/Graphics/SVG/1.1/DTD/svg11.dtd" >
<svg xmlns="http://www.w3.org/2000/svg">
<metadata></metadata>
<defs>
<font id="bienetresocialbold" horiz-adv-x="1269" >
<font-face units-per-em="2048" ascent="1638" descent="-410" />
<missing-glyph horiz-adv-x="634" />
<glyph horiz-adv-x="2048" />
<glyph horiz-adv-x="2048" />
<glyph unicode="&#xd;" horiz-adv-x="634" />
<glyph unicode=" "  horiz-adv-x="634" />
<glyph unicode="&#x09;" horiz-adv-x="634" />
<glyph unicode="&#xa0;" horiz-adv-x="634" />
<glyph unicode="!" horiz-adv-x="757" d="M197 152q0 76 53 129t129 53t129 -53t53 -129t-53 -128.5t-129 -52.5t-129 52.5t-53 128.5zM201 1378q0 82 50 132.5t128 50.5t128 -50.5t50 -132.5q0 -70 -41 -325q-68 -428 -92 -607h-90q-27 195 -92 607q-41 254 -41 325z" />
<glyph unicode="&#x22;" horiz-adv-x="1030" d="M133 1448q0 61 40 103t110 42t109.5 -42t39.5 -103q0 -45 -35 -215q-61 -297 -69 -340h-90q-8 43 -70 340q-35 170 -35 215zM598 1448q0 61 40 103t110 42t109.5 -42t39.5 -103q0 -45 -35 -215q-61 -297 -69 -340h-91q-8 43 -69 340q-35 170 -35 215z" />
<glyph unicode="#" horiz-adv-x="1380" d="M201 256v182l239 60v299l-239 -60v183l239 59l-2 438h113l-2 -411l287 71l-2 340h112l-2 -313l240 59v-182l-240 -59v-299l240 59v-182l-240 -60l2 -450h-112l2 424l-287 -72l2 -352h-113l2 325zM549 522l287 72v303l-287 -72v-303z" />
<glyph unicode="$" d="M100 338q0 80 45 129t117 49q68 0 112 -41t44 -110q0 -72 -82 -148q16 -41 72 -76q74 -47 182 -53v522q-199 12 -322 111q-139 111 -139 297q0 160 111 289q129 150 350 166l-2 124h104l-2 -122q215 -6 336 -103q106 -82 107 -194q0 -176 -148 -177q-61 0 -105 40 t-44 102q0 29 59 137q-55 88 -205 92v-473q225 -16 352 -127.5t127 -306.5q0 -209 -137 -340q-131 -123 -342 -141l2 -322h-104l2 322q-217 6 -350 98q-139 96 -140 256zM360 1151q1 -217 230 -244v463q-113 -14 -171.5 -76.5t-58.5 -142.5zM690 90q252 29 252 254 q0 236 -252 258v-512z" />
<glyph unicode="%" horiz-adv-x="1908" d="M109 1042q0 174 105 296t267 122q168 0 270.5 -115.5t102.5 -295.5t-106.5 -302t-262.5 -122q-172 0 -274 111.5t-102 305.5zM358 1053q0 -336 125 -336q121 -1 121 323q0 328 -125 328q-121 0 -121 -315zM362 0l1068 1481l104 -74l-1075 -1481zM1075 389 q0 174 105.5 296t267.5 122q168 0 270.5 -116t102.5 -296t-106.5 -302t-262.5 -122q-172 0 -274.5 112t-102.5 306zM1325 399q0 -336 125 -336q121 0 121 324q0 328 -125 328q-121 0 -121 -316z" />
<glyph unicode="&#x26;" horiz-adv-x="1597" d="M66 342q0 150 86 266q80 111 260 223q-84 127 -115 195q-39 88 -39 180q0 154 113.5 250t290.5 96q158 0 251 -74.5t93 -199.5q0 -225 -279 -383q123 -188 307 -436q55 90 92 190q35 90 35 133q0 47 -168 88v95h582v-95q-172 -18 -236 -92q-25 -29 -96 -160 q-84 -156 -143 -243q137 -180 223 -234q53 -33 264 -43v-98h-579l-117 152q-178 -186 -420 -187q-168 0 -283 101q-123 104 -122 276zM344 465q0 -131 89 -220t214 -89q88 -1 184 75q-236 317 -364 514q-123 -102 -123 -280zM543 1290q0 -111 133 -315q70 47 117 127t47 162 q0 182 -154 182q-61 0 -102 -43t-41 -113z" />
<glyph unicode="'" horiz-adv-x="565" d="M133 1448q0 61 40 103t110 42t109.5 -42t39.5 -103q0 -45 -35 -215q-61 -297 -69 -340h-90q-8 43 -70 340q-35 170 -35 215z" />
<glyph unicode="(" horiz-adv-x="837" d="M98 623q0 344 166 608q123 193 367 381l112 -70q-215 -164 -321 -352q-139 -242 -139 -567q-1 -588 460 -922l-110 -72q-242 182 -363 373q-172 268 -172 621z" />
<glyph unicode=")" horiz-adv-x="837" d="M94 -299q461 334 461 922q0 326 -137 567q-109 188 -324 352l113 70q244 -188 366 -381q166 -264 166 -608q0 -352 -172 -621q-121 -190 -362 -373z" />
<glyph unicode="*" horiz-adv-x="1103" d="M90 1227q0 49 31 81.5t74 32.5q35 0 124 -61q115 -82 199 -119q-12 82 -47 205q-31 104 -31 131q0 39 32 67.5t81 28.5q47 0 79 -28.5t32 -67.5q0 -25 -33 -131q-35 -121 -45 -207q82 37 200 119q90 63 127 63q43 0 72 -31.5t29 -80.5q0 -88 -62 -107q-23 -6 -135 -10 q-127 -4 -213 -18q63 -70 201 -166q90 -63 90 -115q0 -53 -51 -92q-29 -23 -70 -23q-59 0 -78.5 34t-62.5 147.5t-82 175.5q-41 -72 -81 -181.5t-58 -138.5q-23 -37 -82 -37q-35 0 -70 27q-47 37 -47 88q0 53 88 115q137 98 199 166q-86 14 -213 18q-111 4 -133 10 q-63 18 -64 105z" />
<glyph unicode="+" horiz-adv-x="1380" d="M150 555v160h458v461h164v-461h459v-160h-459v-461h-164v461h-458z" />
<glyph unicode="," horiz-adv-x="634" d="M113 -305q231 119 247 305h-36q-203 0 -203 172q0 63 45 112.5t119 49.5q223 0 223 -283q0 -123 -97.5 -246.5t-242.5 -189.5z" />
<glyph unicode="-" horiz-adv-x="688" d="M72 494v204h544v-204h-544z" />
<glyph unicode="." horiz-adv-x="634" d="M125 162q0 78 57.5 134t134.5 56q78 0 135.5 -56t57.5 -134t-57.5 -134.5t-135.5 -56.5t-135 56.5t-57 134.5z" />
<glyph unicode="/" horiz-adv-x="851" d="M0 -338l637 1923l145 -37l-643 -1923z" />
<glyph unicode="0" d="M86 715q0 334 137 532q147 213 414 213q258 0 402.5 -200.5t144.5 -544.5q0 -334 -137 -535q-147 -213 -414 -213q-256 0 -401.5 201t-145.5 547zM422 713q0 -299 41 -449q49 -184 170 -184q119 0 170 172q45 150 45 465q0 299 -41 446q-49 184 -170 185 q-119 0 -170 -170q-45 -150 -45 -465z" />
<glyph unicode="1" d="M205 1343l33 66q115 -53 266 -53q172 0 291 98h71q-27 -182 -26 -373v-841q0 -80 59 -115q41 -23 174 -31v-94h-799v94q143 8 183 23q70 27 69 112v963h-51q-119 0 -270 151z" />
<glyph unicode="2" d="M100 0l31 186q190 115 272 176q100 78 189 189q174 217 174 485q0 152 -64 236q-59 76 -151 76q-129 0 -172 -82q25 -39 47 -76q31 -55 31 -109q0 -182 -178 -182q-90 0 -136 68q-37 53 -37 133q0 139 130 243q145 117 374 117q217 0 351.5 -121.5t134.5 -316.5 q0 -199 -140 -363q-147 -176 -516 -385v-20h471q111 0 219 229l80 -32l-147 -451h-963z" />
<glyph unicode="3" d="M49 260q0 96 56.5 158.5t152.5 62.5q72 0 117 -41t45 -88q0 -68 -31 -108q-14 -18 -59 -51q-31 -23 -31 -43q0 -18 51 -54q63 -41 148 -41q147 0 240 110.5t93 305.5q0 219 -169 219q-94 0 -183 -88l-78 103q211 125 281 194q106 106 106 248q0 88 -46 144.5t-126 56.5 q-113 0 -178 -66q12 -33 27 -65q18 -47 18 -91q0 -166 -164 -165q-80 0 -124 53q-39 47 -39 121q0 135 146.5 230t365.5 95q215 0 333.5 -84t118.5 -227q0 -147 -114 -231q-98 -72 -314 -113l-30 -27q25 4 55 4q168 0 295 -71q157 -93 157 -265q0 -231 -196 -370 q-184 -131 -457 -131q-195 0 -328 84q-139 90 -139 231z" />
<glyph unicode="4" d="M35 477v121l639 868h219v-872h102q74 0 101 68q20 49 28 135h84v-539h-84q-6 55 -20 145q-23 74 -98 74h-113v-239q0 -78 61 -115q37 -23 148 -29v-94h-727v94q113 6 143 19q68 27 68 112v252h-551zM166 594h420v311q-1 105 24 269h-10z" />
<glyph unicode="5" d="M98 244q0 84 54 133q45 41 112 41q68 0 109 -35t41 -88q0 -86 -49 -152q8 -27 63 -49t107 -22q268 0 268 426q0 287 -252 286q-184 0 -272 -166l-107 19l162 817h80q31 -29 123 -51q104 -29 217 -29q240 0 387 109l41 -49q-123 -178 -285 -252q-145 -66 -367 -66 q-63 0 -149 12l-68 -317q111 96 328 96q219 0 354 -108q145 -115 146 -314q0 -248 -178 -389q-166 -131 -433 -131q-180 0 -301 72q-131 76 -131 207z" />
<glyph unicode="6" d="M104 612q0 383 218 650q211 260 505 260q176 0 265 -86q68 -66 67 -158q0 -66 -38 -108t-107 -42q-100 0 -144 62q-27 37 -41 133q-12 82 -75 82q-119 0 -217 -182q-92 -174 -111 -404l8 -4q119 176 338 176q164 0 279 -129q123 -137 123 -358q0 -207 -121 -354 q-150 -182 -432 -183q-219 0 -363 166q-154 178 -154 479zM420 453q0 -180 67 -287q59 -92 140 -92q211 0 211 418q0 342 -205 342q-90 0 -146 -84q-68 -100 -67 -297z" />
<glyph unicode="7" d="M119 926l151 598h78l25 -115h880v-104q-236 -289 -323 -469q-143 -295 -166 -697q-14 -256 -178 -256q-152 0 -152 180q0 219 205 568q131 225 348 518h-549q-66 0 -118 -51t-117 -189z" />
<glyph unicode="8" d="M100 330q0 123 82 217q59 68 187 141q-123 72 -172 168q-43 82 -43 207q0 174 148.5 293t350.5 119q199 0 329 -96.5t130 -237.5q0 -197 -225 -328q282 -133 282 -387q0 -209 -168 -338q-160 -125 -395 -125q-219 0 -362.5 101.5t-143.5 265.5zM340 365q0 -123 74 -199 q82 -84 233 -84q115 0 200 62.5t85 158.5q0 102 -64 158q-51 45 -213 106q-80 29 -213 84q-57 -96 -71 -129q-31 -74 -31 -157zM385 1165q0 -96 68 -153q49 -43 182 -97q66 -20 172 -63q80 141 80 233q0 272 -248 273q-106 0 -180 -54.5t-74 -138.5z" />
<glyph unicode="9" d="M76 111q0 74 45 118.5t123 44.5q88 0 125 -61q23 -37 39 -135q12 -76 92 -76q121 0 221 186q98 180 123 420l-10 4q-119 -178 -334 -178q-166 0 -281 131q-123 137 -123 359q0 203 123 352q150 184 428 184q225 0 367 -162q151 -174 151 -483q0 -393 -218 -661.5 t-521 -268.5q-172 0 -261 62.5t-89 163.5zM432 936q0 -342 207 -342q86 0 141 82q70 100 70 299q0 180 -68 289q-59 92 -139 92q-211 0 -211 -420z" />
<glyph unicode=":" horiz-adv-x="684" d="M162 150q0 74 53 126t127 52t127 -52t53 -126t-53 -126.5t-127 -52.5t-127 52.5t-53 126.5zM162 918q0 74 53 126t127 52t127 -52t53 -126t-53 -126.5t-127 -52.5t-127 52.5t-53 126.5z" />
<glyph unicode=";" horiz-adv-x="684" d="M137 -305q231 119 248 305h-37q-199 0 -198 168q0 61 44 109.5t115 48.5q221 0 221 -279q0 -123 -96 -243.5t-241 -188.5zM162 918q0 74 53 126t127 52t127 -52t53 -126t-53 -126.5t-127 -52.5t-127 52.5t-53 126.5z" />
<glyph unicode="&#x3c;" horiz-adv-x="1380" d="M190 557v156l986 473v-180l-791 -371l791 -371v-180z" />
<glyph unicode="=" horiz-adv-x="1380" d="M199 352v166h985v-166h-985zM199 754v164h985v-164h-985z" />
<glyph unicode="&#x3e;" horiz-adv-x="1380" d="M205 84v180l790 371l-790 371v180l985 -473v-156z" />
<glyph unicode="?" horiz-adv-x="1087" d="M90 1268q0 115 126 200.5t304 85.5q205 0 332 -112q133 -119 133 -320q0 -209 -133 -347t-340 -163l-6 -186h-105v432q309 31 310 336q0 125 -60 195q-55 63 -145 63q-86 0 -139 -53q14 -27 26 -51q20 -47 21 -88q0 -166 -164 -166q-78 0 -119 49t-41 125zM276 152 q0 76 53.5 129t129.5 53t129 -53t53 -129t-53 -128.5t-129 -52.5t-129.5 52.5t-53.5 128.5z" />
<glyph unicode="@" horiz-adv-x="2183" d="M211 457q0 397 293 692q309 311 762 311q344 0 538 -211q174 -188 174 -469q0 -285 -156.5 -490.5t-383.5 -205.5q-193 0 -250 139h-10q-61 -74 -109 -100q-55 -35 -133 -35q-123 0 -187.5 83t-64.5 224q0 238 162 439.5t373 201.5q125 0 157 -112h6l33 100h256 l-217 -616q-29 -82 -29 -129q0 -96 72 -97q131 0 246 176q123 188 123 435q0 240 -156 391q-166 164 -455 164q-317 0 -548 -232q-252 -250 -252 -649q0 -338 196 -537q188 -188 484 -188q520 0 761 397l82 -49q-127 -225 -346 -346t-508 -121q-383 0 -641 225 q-272 236 -272 609zM950 367q0 -145 76 -146q86 0 139 90l166 484q-4 145 -102 145q-102 0 -190.5 -182.5t-88.5 -390.5z" />
<glyph unicode="A" horiz-adv-x="1513" d="M-49 0v96q88 4 137 33q84 47 125 158l461 1257h190l477 -1323q23 -57 93 -90q59 -29 129 -35v-96h-766v94q211 12 211 43q0 20 -11 49l-110 316h-469q-86 -242 -86 -332q0 -61 227 -74v-96h-608zM465 625h375l-189 520z" />
<glyph unicode="B" horiz-adv-x="1484" d="M45 0v96q129 6 162 21q63 27 63 108v1057q0 84 -63.5 110.5t-161.5 32.5v97h766q522 0 522 -338q0 -258 -358 -355v-20q178 -20 293 -111q139 -108 139 -286q0 -223 -166 -322q-152 -90 -463 -90h-733zM610 215q0 -104 176 -104q115 0 184.5 83.5t69.5 233.5 q0 319 -313 320q-84 0 -117 -5v-528zM610 862h74q289 0 289 291q0 256 -254 256q-59 0 -109 -4v-543z" />
<glyph unicode="C" horiz-adv-x="1454" d="M80 741q0 360 213 586.5t547 226.5q180 0 368 -100l43 84h95l8 -582h-101q-74 250 -168 367t-235 117q-186 0 -288.5 -172t-102.5 -486q0 -326 119 -493q111 -156 307 -156q143 0 250 80q92 70 182 223l90 -49q-180 -418 -600 -418q-313 0 -516 203q-211 213 -211 569z " />
<glyph unicode="D" horiz-adv-x="1669" d="M55 0v96q115 0 152 17q63 27 63 108v1061q0 86 -63 115q-51 25 -144 28v97h719q299 0 518 -156q291 -206 291 -614q0 -367 -264 -572q-231 -180 -584 -180h-688zM612 272q0 -159 174 -159h2q211 0 318 174q100 166 100 469q0 297 -120.5 475t-327.5 178q-68 0 -146 -4 v-1133z" />
<glyph unicode="E" horiz-adv-x="1443" d="M45 0v96q129 6 162 21q63 27 63 108v1057q0 84 -63.5 110.5t-161.5 32.5v97h1258v-387h-91q-31 88 -90 165q-68 92 -133 101q-96 12 -170 12h-209v-567h131q127 0 181 57q23 25 48 89.5t29 107.5h91v-635h-91q-2 47 -29.5 117.5t-47.5 93.5q-47 55 -181 55h-131v-422 q0 -135 41 -166.5t201 -31.5q256 0 303 53q78 88 170 311h86l-27 -475h-1339z" />
<glyph unicode="F" horiz-adv-x="1343" d="M45 0v96q129 6 162 21q63 27 63 108v1057q0 84 -63.5 110.5t-161.5 32.5v97h1276v-404h-90q-27 90 -88 174q-72 100 -135 109q-96 12 -170 12h-226v-582h129q131 0 181 56q23 25 48 90t29 108h91v-634h-91q-2 45 -30 118q-27 66 -47 90q-49 57 -181 58h-129v-484 q0 -82 64 -110q45 -20 153 -27v-96h-784z" />
<glyph unicode="G" horiz-adv-x="1615" d="M80 741q0 360 216 586.5t556 226.5q195 0 379 -100l43 84h94l8 -569h-100q-80 248 -170 356q-96 115 -244 115q-195 0 -299 -171t-104 -487q0 -307 102.5 -499.5t265.5 -192.5q104 0 177 54.5t100 146.5v164q0 84 -64 110q-70 29 -157 33v96h729v-96q-84 -8 -123 -23 q-63 -23 -64 -108v-487l-77 -15l-105 129q-238 -125 -465 -125q-301 0 -491 193q-207 209 -207 579z" />
<glyph unicode="H" horiz-adv-x="1810" d="M57 0v96q61 2 150 17q63 27 63 108v1061q0 82 -63.5 110.5t-149.5 32.5v97h766v-97q-102 -6 -147 -22q-63 -25 -64 -109v-438h586v426q0 82 -62.5 110.5t-148.5 32.5v97h766v-97q-104 -6 -149 -22q-63 -25 -64 -109v-1061q0 -78 64 -110q39 -20 149 -27v-96h-766v96 q59 2 148 17q63 27 63 108v510h-586v-498q0 -82 64 -110q45 -20 147 -27v-96h-766z" />
<glyph unicode="I" horiz-adv-x="890" d="M61 0v96q61 2 150 17q63 27 63 108v1061q0 82 -63.5 110.5t-149.5 32.5v97h768v-97q-104 -6 -149 -22q-63 -25 -64 -109v-1061q0 -82 64 -110q45 -20 149 -27v-96h-768z" />
<glyph unicode="J" horiz-adv-x="1159" d="M8 242q0 98 53.5 157.5t141.5 59.5q82 0 130 -52.5t48 -134.5q0 -129 -123 -186v-14q27 -10 68 -11q127 0 188 89.5t61 291.5v840q0 82 -63 109.5t-158 33.5v97h776v-97q-104 -6 -149 -22q-63 -25 -63 -109v-841q0 -233 -156 -369q-145 -125 -371 -125q-186 0 -289 82 q-94 76 -94 201z" />
<glyph unicode="K" horiz-adv-x="1665" d="M63 0v96q117 6 144 17q63 23 63 108v1061q0 82 -61.5 110.5t-145.5 32.5v97h760v-97q-102 -6 -147 -22q-63 -25 -64 -109v-501h29q473 451 473 579q0 45 -133 53v97h635v-97q-231 -16 -344 -133q-94 -104 -346 -370q66 -86 481 -664q70 -98 172 -139q45 -18 117 -23v-96 h-783v96q80 8 101 15q37 10 37 41q0 37 -88 172q-106 162 -304 401h-47v-492q0 -82 64 -110q39 -18 123 -27v-96h-736z" />
<glyph unicode="L" horiz-adv-x="1363" d="M45 0v96q129 6 162 21q63 27 63 108v1057q0 84 -63.5 110.5t-161.5 32.5v97h780v-97q-104 -6 -149 -22q-63 -25 -64 -109v-985q0 -135 41 -166.5t201 -31.5q201 0 248 53q68 76 182 358h86l-31 -522h-1294z" />
<glyph unicode="M" horiz-adv-x="2064" d="M12 0v96q55 6 90 15q70 14 101 39q67 50 67 298v7v733q0 131 -63 186q-53 47 -184 51v97h682l327 -1002l277 813q39 115 45 189h655v-97q-106 -6 -151 -22q-63 -25 -64 -109v-1061q0 -78 64 -110q39 -20 153 -27v-96h-790v96q72 4 172 23q68 39 67 114v1119h-18 l-467 -1327h-117q-8 33 -98 309l-338 1040h-23v-907q0 -240 70 -303q25 -23 98 -45q66 -20 99 -23v-96h-654z" />
<glyph unicode="N" horiz-adv-x="1667" d="M12 0v96q55 6 90 15q70 14 101 39q67 50 67 298v7v706q0 127 -57 185q-49 49 -201 81v95h533l739 -1018v553q0 238 -70 301q-25 23 -98 45q-66 20 -98 22v97h653v-97q-53 -6 -90 -14q-70 -14 -100 -39q-68 -51 -68 -305v-1075h-160l-854 1179v-704q0 -240 70 -303 q25 -23 98 -45q66 -20 99 -23v-96h-654z" />
<glyph unicode="O" horiz-adv-x="1681" d="M80 743q0 369 221 596q213 219 541 220q319 0 534 -209q226 -222 226 -580q0 -346 -201 -571q-213 -236 -567 -236q-315 0 -531 211q-223 219 -223 569zM467 756q0 -301 86 -477q98 -197 289 -197q190 0 286 194q86 177 86 488q0 291 -79 467q-96 209 -293 209 q-182 0 -278.5 -177.5t-96.5 -506.5z" />
<glyph unicode="P" horiz-adv-x="1388" d="M45 0v96q129 6 162 21q63 27 63 108v1057q0 84 -63.5 110.5t-161.5 32.5v97h768q537 -1 537 -392q0 -242 -193 -372q-172 -115 -434 -115h-111v-410q0 -82 64 -110q45 -20 153 -27v-96h-784zM612 756h56h2q313 0 313 325q0 168 -63 246q-68 86 -218 86h-90v-657z" />
<glyph unicode="Q" horiz-adv-x="1699" d="M80 743q0 369 223 596q213 219 541 220q319 0 534 -209q227 -221 228 -580q0 -229 -103.5 -417.5t-283.5 -293.5q33 -113 106 -155q55 -33 154 -33q84 0 141 55q31 29 80 113l76 -49q-61 -129 -158 -221q-133 -133 -287 -134q-317 0 -383 340q-74 -12 -112 -12 q-315 0 -531 211q-225 219 -225 569zM465 756q0 -274 59 -434q90 223 307 223q238 0 314 -277h12q68 158 68 496q0 289 -84 467q-98 209 -297 209q-182 0 -280.5 -178.5t-98.5 -505.5zM569 233q89 -157 273 -157h2q43 0 90 14q-8 164 -49 236.5t-131 72.5q-143 0 -185 -166z " />
<glyph unicode="R" horiz-adv-x="1579" d="M45 0v96q129 6 162 21q63 27 63 108v1057q0 84 -63.5 110.5t-161.5 32.5v97h776q541 0 541 -348q0 -170 -113 -269q-86 -76 -278 -133v-22q266 -72 344 -283q37 -100 86 -248q18 -55 45 -78q20 -16 74 -30q37 -10 110 -15v-96h-549q-43 229 -116 428q-100 272 -318 272 h-35v-467q0 -82 64 -110q45 -20 147 -27v-96h-778zM612 813h56q143 0 229 78q94 84 94 246q0 276 -295 276h-84v-600z" />
<glyph unicode="S" d="M72 561h92q68 -190 172 -315q129 -156 276 -156q121 0 191.5 71.5t70.5 184.5q0 164 -229 248q-100 35 -268 100q-268 121 -268 416q0 182 135 309q143 135 370 135q205 0 363 -100l43 84h94l10 -547h-90q-74 209 -151 312q-100 131 -236 131q-96 0 -161.5 -69 t-65.5 -167q0 -90 53 -146.5t174 -101.5q96 -35 266 -100q135 -61 201 -145q80 -103 80 -267q0 -205 -153.5 -337t-395.5 -132q-219 0 -418 115l-49 -104h-92z" />
<glyph unicode="T" horiz-adv-x="1361" d="M12 1073v449h1338v-449h-95q-27 94 -88 195q-72 123 -131 133q-80 14 -149 14h-35v-1173q0 -86 63 -115q53 -25 168 -31v-96h-804v96q135 8 167 21q63 27 64 112v1186h-35q-61 0 -149 -14q-59 -10 -131 -133q-61 -100 -89 -195h-94z" />
<glyph unicode="U" horiz-adv-x="1683" d="M37 1427v95h762v-95q-102 -6 -148 -22q-63 -25 -63 -109v-768q0 -217 82 -312t256 -95q356 0 356 422v514q0 238 -70 301q-25 23 -98 45q-66 20 -98 22v97h653v-97q-53 -6 -90 -14q-70 -14 -100 -39q-68 -51 -68 -305v-555q0 -260 -162 -408q-152 -139 -395 -139 q-293 0 -451.5 142.5t-158.5 400.5v776q0 104 -119 131q-41 10 -88 12z" />
<glyph unicode="V" horiz-adv-x="1495" d="M-49 1425v97h768v-95q-119 -12 -150 -18q-45 -10 -45 -31q0 -20 11 -59q70 -215 296 -928q186 469 287 746q55 152 56 215q0 59 -234 71v99h608v-99q-80 -10 -133 -37q-72 -37 -108 -126q-195 -475 -494 -1270h-199q-272 840 -424 1276q-29 84 -104 123q-59 31 -135 36z " />
<glyph unicode="W" horiz-adv-x="2246" d="M-39 1425v97h717v-97q-174 -4 -174 -34q0 -27 8 -56q76 -260 283 -905l260 717q-33 117 -43 143q-33 76 -86.5 103.5t-137.5 31.5v97h734v-97q-197 -6 -197 -34q0 -27 8 -56q88 -309 287 -897q164 457 244 717q43 139 43 197q0 59 -219 73v97h602v-97q-76 -8 -133 -39 q-82 -43 -129 -182q-139 -395 -429 -1214h-182q-139 451 -305 973l-354 -973h-178q-166 541 -396 1286q-25 78 -90 115q-47 27 -133 34z" />
<glyph unicode="X" horiz-adv-x="1599" d="M-14 0v94q78 6 131 31q94 43 184 156q106 133 342 434q-143 231 -332 530q-68 109 -174 150q-66 25 -147 30v97h884v-97q-223 -8 -223 -43q0 -47 230 -428q282 361 282 418q0 41 -180 55v95h600v-95q-66 -6 -131 -30q-104 -41 -197 -156l-309 -393q172 -283 359 -572 q74 -113 168 -149q66 -25 149 -31v-96h-881v96q223 12 224 45q0 51 -254 467q-317 -403 -318 -458q0 -41 180 -56v-94h-587z" />
<glyph unicode="Y" horiz-adv-x="1460" d="M-63 1425v97h806v-97q-207 -12 -206 -32q0 -68 313 -627q317 545 317 600q0 47 -192 59v97h559v-97q-76 -10 -123 -34q-80 -41 -141 -142q-113 -180 -285 -483q-88 -156 -88 -317v-207q0 -86 64 -115q53 -25 167 -31v-96h-804v96q135 8 168 21q63 27 63 112v263 q0 117 -66 241q-186 352 -282 524q-63 111 -158 148q-47 16 -112 20z" />
<glyph unicode="Z" horiz-adv-x="1363" d="M4 0v78l914 1331h-312q-147 0 -207.5 -28.5t-218.5 -336.5h-94l45 478h1194v-78l-913 -1331h356q162 0 231 16q59 12 86 49q82 113 181 348h88l-49 -526h-1301z" />
<glyph unicode="[" horiz-adv-x="940" d="M172 -311v1833h670v-111h-400v-1612h400v-110h-670z" />
<glyph unicode="\" horiz-adv-x="851" d="M70 1548l145 37l637 -1923l-139 -37z" />
<glyph unicode="]" horiz-adv-x="940" d="M98 -201h400v1612h-400v111h670v-1833h-670v110z" />
<glyph unicode="^" horiz-adv-x="1380" d="M147 618l465 875h156l465 -875h-180l-363 693l-362 -693h-181z" />
<glyph unicode="_" d="M-10 -104h1290v-111h-1290v111z" />
<glyph unicode="`" horiz-adv-x="763" d="M113 1473q0 117 114 116q47 0 125 -65l299 -254l-35 -62l-395 138q-109 37 -108 127z" />
<glyph unicode="a" horiz-adv-x="1214" d="M80 242q0 137 67 215q49 55 154 98q41 16 221 76q139 47 189 76v104q0 78 -31 135q-43 78 -131 78q-74 0 -125 -43q0 -2 18 -55q12 -37 13 -76q0 -51 -35 -88q-43 -47 -127 -47q-164 0 -164 157q0 106 145 185q133 73 287 73h4q215 0 314 -61q129 -82 129 -299 q0 -125 -7.5 -318.5t-7.5 -215.5q0 -104 82 -105q70 0 74 186h94q-10 -344 -295 -344q-100 0 -155 43q-41 33 -80 113h-4q-135 -158 -349 -158q-121 0 -200.5 77t-79.5 194zM395 307q0 -170 140 -170q109 0 170 88l8 381q-172 -72 -217 -104q-100 -74 -101 -195z" />
<glyph unicode="b" horiz-adv-x="1325" d="M-33 1481v86l496 30l14 -18v-598l8 -2q130 151 304 151h2q197 0 327 -157q133 -164 133 -422q0 -244 -150.5 -411t-352.5 -167q-168 0 -336 107l-93 -133l-143 16q8 123 8 426v936q0 90 -61 127q-25 16 -156 29zM477 287q53 -182 205 -183q111 0 176.5 110t65.5 331 q0 182 -58 289q-65 122 -194 122h-2q-119 0 -193 -100v-569z" />
<glyph unicode="c" horiz-adv-x="1048" d="M72 555q0 233 147 399q158 176 404 176q184 0 286 -81q96 -76 97 -201q0 -174 -168 -174q-61 0 -109 33q-59 39 -59 108q0 53 17.5 95t17.5 51q-10 63 -93 63q-94 0 -151 -98q-68 -117 -68 -357q0 -193 84 -313q78 -117 199 -117q109 0 176 60q53 43 113 155l77 -67 q-61 -139 -172 -221q-119 -92 -264 -93q-256 0 -399 168q-135 158 -135 414z" />
<glyph unicode="d" horiz-adv-x="1361" d="M74 565q0 242 151.5 403.5t356.5 161.5q158 0 274 -71v250q0 88 -57 131q-43 33 -207 43v86l543 28l14 -14v-1339q0 -66 59 -109q27 -18 142 -24v-86l-465 -27l-17 14l-10 109l-8 2q-133 -150 -301 -150q-211 0 -340 158q-135 162 -135 434zM401 545q0 -180 62 -285 q68 -121 205 -121q104 0 188 113v575q-47 176 -209 177q-111 0 -176 -115q-70 -123 -70 -344z" />
<glyph unicode="e" horiz-adv-x="1150" d="M72 555q0 233 143 399q152 176 393 176q246 0 369 -141q109 -123 108 -330v-77h-696q0 -207 92 -324t262 -117q184 0 299 203l76 -72q-68 -131 -199 -215t-286 -84q-272 0 -422 170q-139 158 -139 412zM389 682l383 6q0 338 -176 338q-92 0 -145 -84q-59 -90 -62 -260z " />
<glyph unicode="f" horiz-adv-x="808" d="M16 948v125h220q0 276 157 416q131 117 334 117q242 0 242 -174q0 -61 -37 -107q-41 -51 -107 -51q-155 0 -155 147q0 22 18 103q-80 0 -115 -58q-45 -72 -45 -256v-137h277v-125h-275v-735q0 -82 74 -104q43 -14 139 -19v-90h-675v90q41 2 108 12q59 18 60 99v747h-220z " />
<glyph unicode="g" horiz-adv-x="1212" d="M49 -143q0 94 88 156.5t244 64.5v20q-221 45 -221 193q0 113 194 162v14q-248 82 -248 321q0 154 130.5 248t341.5 94q184 0 292 -69q23 121 103 184q63 47 137 47q59 0 97 -35t38 -94q0 -51 -31.5 -86t-74.5 -35q-86 0 -109 78q-27 0 -57 -24q-37 -29 -47 -74 q110 -89 110 -241q0 -148 -115.5 -245.5t-283.5 -97.5h-182q-49 -20 -49 -71t81 -70q31 -6 162 -14q98 -4 246 -11q109 -6 192 -88q92 -92 93 -225q0 -160 -144 -262q-162 -113 -461 -113q-526 0 -526 273zM340 -137q0 -74 72.5 -123t203.5 -49q135 0 212 56.5t77 156.5 q0 90 -100 123q-143 14 -324 14q-141 -31 -141 -178zM456 601q44 -75 115 -75q80 0 127 80q41 70 41 176q0 111 -39 179q-44 77 -127 77h-2q-159 0 -159 -244q0 -118 44 -193z" />
<glyph unicode="h" horiz-adv-x="1396" d="M-6 1481v88l498 28l14 -14v-645h6q92 94 147 129q100 63 230 63q301 0 301 -362v-561q0 -70 59 -98q31 -14 107 -19v-90h-596v90q31 0 82 13.5t51 93.5v534q0 109 -47 172q-41 57 -105 58q-88 0 -159 -62q-53 -47 -76 -100v-588q0 -70 51 -100q29 -16 86 -21v-90h-598v90 q37 0 109 10q59 18 59 97v1124q0 92 -59 135q-25 18 -160 25z" />
<glyph unicode="i" horiz-adv-x="749" d="M39 999v88l481 35l15 -16v-893q0 -115 167 -123v-90h-630v90q39 0 108 10q59 20 60 99v649q0 78 -60 117q-45 31 -141 34zM184 1446q0 68 50.5 109.5t132.5 41.5q186 0 186 -141q0 -158 -186 -158q-82 0 -132.5 42t-50.5 106z" />
<glyph unicode="j" horiz-adv-x="739" d="M-166 -252q0 59 37 102.5t96 43.5q152 0 152 -138q0 -39 -21 -94q164 0 164 354v815q0 76 -61 121q-18 12 -85 28.5t-100 18.5v88l529 35l14 -16v-993q0 -276 -158 -416q-129 -113 -327 -113q-240 0 -240 164zM205 1446q0 68 50 109.5t132 41.5q186 0 186 -141 q0 -158 -186 -158q-82 0 -132 42t-50 106z" />
<glyph unicode="k" horiz-adv-x="1310" d="M-6 1481v88l498 28l14 -14v-1020q113 111 321 344q27 35 27 60q0 35 -135 47v88h532v-86q-213 -61 -283.5 -115.5t-176.5 -169.5q141 -68 241 -252q35 -61 127 -299q20 -53 94 -76q47 -14 93 -14v-90h-441q-41 166 -119 319q-96 186 -176 187q-70 0 -104 -27v-268 q0 -70 51 -100q27 -16 107 -21v-90h-619v90q37 0 109 10q59 18 59 97v1124q0 92 -59 135q-25 18 -160 25z" />
<glyph unicode="l" horiz-adv-x="731" d="M-6 1479v88l504 30l16 -18v-1368q0 -74 59 -100q37 -16 109 -21v-90h-631v90q39 0 109 10q61 20 61 97v1116q0 88 -61 131q-41 29 -166 35z" />
<glyph unicode="m" horiz-adv-x="2050" d="M49 1001v86l451 35l16 -16l10 -172h6q100 102 144 131q95 65 217 65h4q211 0 285 -198q102 102 149 133q99 65 219 65h4q293 0 293 -376v-547q0 -72 58 -98q31 -14 114 -19v-90h-589v90q25 0 71 8q49 18 49 99v532q0 109 -43 172q-39 55 -100 55q-84 0 -152 -61 q-47 -45 -67 -94v-594q0 -74 47 -98q23 -14 80 -19v-90h-545v90q25 0 72 8q49 23 49 99v532q0 111 -43 172q-37 55 -98 55q-82 0 -150 -63q-49 -45 -72 -98v-586q0 -74 47 -98q27 -16 80 -21v-90h-589v90q39 0 106 8q61 18 61 101v661q-10 76 -58 106.5t-126 34.5z" />
<glyph unicode="n" horiz-adv-x="1415" d="M55 1001v89l449 32l14 -14l10 -170h4q100 98 148 127q99 65 223 65h4q305 0 305 -364v-561q0 -70 60 -96q33 -14 106 -19v-90h-596v90q66 0 84 8q49 23 49 101v530q0 111 -47 174q-41 55 -104 55q-90 0 -160 -61q-55 -45 -76 -100v-588q0 -111 138 -119v-90h-600v90 q86 0 106 8q61 25 61 101v657q0 76 -61 117q-37 25 -117 28z" />
<glyph unicode="o" horiz-adv-x="1271" d="M74 549q0 256 156.5 418.5t410.5 162.5t405.5 -159.5t151.5 -405.5q0 -252 -147 -415q-158 -176 -424 -177q-229 0 -387 156q-166 164 -166 420zM401 567q0 -215 56 -340q61 -143 182 -143q117 0 178 139q53 125 53 338q0 459 -231 459q-238 0 -238 -453z" />
<glyph unicode="p" horiz-adv-x="1355" d="M25 -326q98 6 131 17q59 20 59 106v1049q0 82 -59 125q-33 23 -131 28v88l456 35l17 -14l10 -131l8 -2q142 155 303 155h2q199 0 330 -160.5t131 -416.5q0 -236 -149.5 -396.5t-352.5 -160.5q-162 0 -262 76h-8v-262q0 -76 61 -105q53 -25 166 -31v-90h-712v90zM510 285 q49 -162 205 -162q111 0 172 102q67 113 67 330q0 176 -57 283q-66 123 -197 123q-115 0 -190 -109v-567z" />
<glyph unicode="q" horiz-adv-x="1329" d="M74 573q0 238 153.5 397.5t358.5 159.5q121 0 221 -45q59 -35 117 -67l108 143l135 -8q-16 -369 -16 -408v-931q0 -78 59 -109q41 -20 133 -31v-90h-694v90q53 2 146 17q61 20 61 102v336l-8 2q-123 -137 -301 -137q-203 0 -338 160.5t-135 418.5zM401 551 q0 -391 265 -391q108 0 190 98v580q-51 163 -209 163h-2q-109 0 -174 -114q-70 -121 -70 -336z" />
<glyph unicode="r" horiz-adv-x="1056" d="M55 1001v89l449 32l14 -14v-168h17q137 186 305 186q90 0 143 -56.5t53 -156.5q0 -88 -46 -146t-118 -58q-165 0 -165 139q0 29 20 110q-115 -2 -199 -135v-606q0 -72 62 -102q35 -18 160 -25v-90h-684v90h14q36 0 92 8q61 23 61 101v657q0 76 -61 117q-37 25 -117 28z " />
<glyph unicode="s" horiz-adv-x="1036" d="M88 401h88q31 -115 113 -208q98 -119 215 -119q88 0 142 42t54 120q0 82 -79 131q-45 29 -197 82q-305 106 -305 350q0 137 109.5 234t291.5 97q137 0 260 -63l25 63h88l14 -372h-88q-31 111 -100 186q-76 80 -164 80q-74 0 -128 -38t-54 -97q0 -82 69 -127 q47 -31 201 -82q315 -104 315 -350q0 -166 -125.5 -262.5t-312.5 -96.5q-174 0 -301 92l-31 -69h-90z" />
<glyph unicode="t" horiz-adv-x="864" d="M0 958v125h217v318h281v-318h305v-125h-303v-628q0 -104 28.5 -149.5t106.5 -45.5q111 0 117 205h106q-18 -362 -332 -363q-317 0 -317 318v663h-209z" />
<glyph unicode="u" horiz-adv-x="1378" d="M20 999v88l467 35l13 -16v-744q0 -109 43 -167t104 -58q143 0 221 164v567q0 74 -45 111q-18 16 -127 20v88l453 35l14 -16v-864q0 -70 60 -107q29 -18 116 -22v-88l-442 -27l-16 18l-11 144h-6q-90 -94 -143 -125q-94 -59 -223 -60q-295 0 -295 377v508q0 70 -68 113 q-37 23 -115 26z" />
<glyph unicode="v" horiz-adv-x="1136" d="M-18 1012v90h598v-92q-129 -6 -129 -39q0 -10 10 -49q16 -45 213 -553h8q84 205 197 508q12 33 12 67q0 51 -154 70v88h432v-86q-131 -29 -168 -117q-80 -203 -258 -651q-47 -119 -81 -254h-162q-133 358 -353 915q-31 80 -165 103z" />
<glyph unicode="w" horiz-adv-x="1753" d="M-14 1012v90h569v-90q-106 -6 -106 -41q0 -10 10 -49q78 -227 205 -562h8q59 143 168 426q-10 35 -47 123q-27 57 -68 80q-23 12 -82 23v90h567v-92q-129 -6 -129 -39q0 -18 11 -49q86 -254 202 -562h6q61 154 193 517q6 18 6 67q0 51 -151 70v88h434v-86 q-129 -29 -166 -117q-88 -215 -256 -651q-57 -150 -84 -254h-143q-78 227 -240 659h-6q-53 -129 -160 -405q-29 -80 -82 -254h-149q-197 535 -346 915q-33 82 -164 103z" />
<glyph unicode="x" horiz-adv-x="1185" d="M4 0v84q158 45 215 119q68 84 244 315q-96 156 -262 414q-51 80 -181 80v90h594v-86q-110 0 -110 -15q0 -10 20 -49q4 -6 144 -250q37 53 147 228q14 23 14 43q0 27 -108 43v86h444v-86q-170 -39 -227 -109q-72 -90 -215 -286q104 -164 281 -437q31 -45 69 -65 q33 -16 111 -29v-90h-606v86q124 0 124 29q0 12 -32 69q-20 35 -152 250q-39 -51 -170 -246q-27 -39 -26 -57q0 -45 129 -45v-86h-447z" />
<glyph unicode="y" horiz-adv-x="1128" d="M-14 1012v90h585v-92q-70 -2 -79 -4q-45 -8 -46 -35q0 -16 15 -49q66 -152 227 -523q27 66 186 478q10 27 11 67q0 51 -152 70v88h432v-86q-127 -27 -166 -117q-96 -221 -190 -465q-117 -299 -125 -319q-133 -326 -252 -443q-88 -88 -215 -88q-72 0 -131 45 q-70 53 -70 138q0 66 43 119t113 53q158 0 158 -150v-49q53 10 114 106q6 12 97 187q-162 360 -396 876q-39 82 -159 103z" />
<glyph unicode="z" horiz-adv-x="1064" d="M63 0v86l572 907q-272 0 -344 -30q-20 -8 -51 -83t-47 -157h-89v379h881v-78l-579 -915q55 -2 172 -3q102 0 165 9q72 8 107 92q25 59 61 221h88v-428h-936z" />
<glyph unicode="{" horiz-adv-x="989" d="M47 537v157q166 14 234 58q88 55 88 196q0 39 -18.5 134.5t-18.5 140.5q0 209 172 295q133 68 387 67v-90q-274 -16 -275 -229q0 -37 11.5 -118t11.5 -126q0 -190 -107 -272q-74 -57 -290 -103v-65q217 -45 290 -103q106 -82 107 -272q0 -43 -11.5 -123t-11.5 -119 q0 -213 275 -229v-90q-254 0 -387 67q-172 86 -172 295q0 45 18.5 140.5t18.5 134.5q0 141 -88 198q-70 43 -234 56z" />
<glyph unicode="|" horiz-adv-x="690" d="M272 -369v1952h146v-1952h-146z" />
<glyph unicode="}" horiz-adv-x="989" d="M98 -264q274 16 275 229q0 39 -11.5 119t-11.5 123q0 190 107 272q74 57 291 103v65q-217 45 -291 103q-106 82 -107 272q0 45 11.5 126t11.5 118q0 213 -275 229v90q254 0 387 -67q172 -86 172 -295q0 -45 -18 -140.5t-18 -134.5q0 -141 88 -196q68 -43 233 -58v-157 q-164 -12 -233 -56q-88 -57 -88 -198q0 -39 18 -134.5t18 -140.5q0 -209 -172 -295q-133 -68 -387 -67v90z" />
<glyph unicode="~" horiz-adv-x="1380" d="M166 514q35 123 127 219q102 109 215 109q102 0 242 -72q115 -59 168 -59q80 0 122 43q29 27 80 125l94 -43q-39 -127 -129 -224q-102 -109 -215 -108q-104 0 -233 65.5t-176 65.5q-80 0 -125 -41q-29 -29 -80 -123z" />
<glyph unicode="&#xa1;" horiz-adv-x="757" d="M197 1380q0 76 53 128.5t129 52.5t129 -52.5t53 -128.5t-53 -129t-129 -53t-129 53.5t-53 128.5zM201 150q0 72 41 325q66 412 92 606h90q25 -178 92 -606q41 -255 41 -325q0 -82 -50 -132.5t-128 -50.5t-128 50.5t-50 132.5z" />
<glyph unicode="&#xa2;" d="M174 653q0 201 133 357.5t340 183.5l-2 285h105l-2 -279q164 -6 268 -86t104 -186q0 -162 -147 -162q-59 0 -98 37t-39 96q0 51 41 143q-35 59 -129 64v-846h18q180 0 289 191l67 -56q-53 -121 -147 -198q-102 -84 -227 -97l2 -321h-105l2 321q-203 20 -330 152 q-143 147 -143 401zM459 670q0 -297 188 -385v805q-188 -68 -188 -420z" />
<glyph unicode="&#xa3;" d="M31 162q0 80 53 124t129 44q72 0 164 -33q2 74 -27 170q-20 74 -41 145h-254v119h230q-29 121 -29 203q0 244 146.5 401.5t381.5 157.5q193 0 306 -92q106 -86 106 -213q0 -80 -37 -131q-47 -66 -137 -66q-176 0 -176 178q0 49 26 99q25 37 50 73q-33 41 -131 41 q-86 0 -142 -63q-74 -80 -74 -246q0 -49 19.5 -179t19.5 -163h324v-119h-322q-6 -207 -145 -348q158 -51 301 -51q334 0 356 279l101 -17q-16 -246 -129 -379q-119 -141 -330 -141q-184 0 -377 201q-119 -156 -213 -156q-66 0 -107.5 47t-41.5 115z" />
<glyph unicode="&#xa4;" d="M41 475v115h152q-4 33 -5 104q0 29 5 82h-152v115h160q45 258 207.5 412.5t396.5 154.5q182 0 294.5 -82t112.5 -211q0 -82 -45 -133t-125 -51q-68 0 -114 37q-55 43 -56 115q0 49 17 88q14 29 26 57q-12 70 -116 70q-246 0 -289 -457h367v-115h-375q-4 -61 -4 -84 q0 -37 4 -102h327v-115h-317q43 -348 299 -348q203 0 309 264l101 -51q-150 -369 -476 -369q-223 0 -366 128t-180 376h-158z" />
<glyph unicode="&#xa5;" d="M-23 1341v86h693v-86q-55 -4 -113 -6q-66 -6 -65 -26q0 -29 241 -545q250 461 250 518q0 33 -53 47q-23 4 -107 12v86h475v-86q-49 -4 -104 -34q-63 -35 -109 -109q-123 -203 -282 -534h336v-119h-355v-305q0 -84 60 -115q47 -25 160 -31v-94h-750v94q127 6 168 23 q66 25 65 110v318h-354v119h334l-250 503q-49 100 -123 142q-51 29 -117 32z" />
<glyph unicode="&#xa6;" horiz-adv-x="690" d="M272 -369v787h146v-787h-146zM272 811v772h146v-772h-146z" />
<glyph unicode="&#xa7;" d="M129 569q0 233 281 312q-113 104 -113 249q0 131 113 232q121 106 305 106q160 0 254 -67q88 -66 88 -168q0 -61 -43 -103.5t-111 -42.5q-53 0 -95 34t-42 79q0 35 20.5 72t20.5 51t-37 30.5t-90 16.5q-66 0 -110 -40t-44 -83q0 -86 123 -194q51 -45 148 -105 q106 -68 168 -117q176 -141 176 -301q0 -225 -283 -309q121 -111 121 -252q0 -139 -113 -237q-119 -104 -305 -105q-162 0 -257 65.5t-95 168.5q0 61 43 103t108 42q53 0 96.5 -33.5t43.5 -78.5q0 -35 -20.5 -72t-20.5 -51t41 -29.5t96 -15.5q68 0 115 43q39 39 39 84 q0 92 -129 198q-47 39 -146 101q-104 66 -170 116q-176 137 -176 301zM350 686q0 -82 94 -160q57 -47 156.5 -109.5t183.5 -131.5q136 37 136 129q0 84 -95 159q-59 47 -157.5 109.5t-182.5 132.5q-135 -35 -135 -129z" />
<glyph unicode="&#xa8;" horiz-adv-x="763" d="M8 1438q0 61 41 106t101 45q61 0 103 -43t42 -98q0 -63 -43 -110.5t-102 -47.5t-100.5 44t-41.5 104zM469 1438q0 61 41 106t100 45q61 0 103.5 -43t42.5 -98q0 -63 -43 -110.5t-103 -47.5q-59 0 -100 44t-41 104z" />
<glyph unicode="&#xa9;" horiz-adv-x="2011" d="M102 588q0 371 266.5 635t639.5 264q371 0 636 -264t265 -635q0 -373 -265.5 -638t-635.5 -265q-373 0 -639.5 265t-266.5 638zM217 588q0 -334 229.5 -566.5t561.5 -232.5q330 0 558 232.5t228 566.5q0 330 -228.5 561t-557.5 231q-332 0 -561.5 -231t-229.5 -561z M518 575q0 223 147.5 366.5t374.5 143.5q117 0 244 -65l35 51h76v-375h-80q-96 297 -268 297q-121 0 -185.5 -104.5t-64.5 -288.5q0 -379 274 -379q160 0 287 195l76 -43q-137 -281 -416 -281q-215 0 -354 129q-145 135 -146 354z" />
<glyph unicode="&#xaa;" horiz-adv-x="1558" d="M72 0v1417h1415v-1417h-1415z" />
<glyph unicode="&#xab;" horiz-adv-x="1357" d="M147 575q0 80 76 138l418 321l64 -57l-310 -406l312 -399l-64 -57l-420 321q-76 57 -76 139zM657 575q0 80 76 138l418 321l63 -57l-309 -406l312 -399l-64 -57l-420 321q-76 57 -76 139z" />
<glyph unicode="&#xac;" horiz-adv-x="1380" d="M150 555v160h1052v-662h-168v502h-884z" />
<glyph unicode="&#xad;" horiz-adv-x="688" d="M72 494v204h544v-204h-544z" />
<glyph unicode="&#xae;" horiz-adv-x="1454" d="M117 936q0 252 179 426t431 174q250 0 430 -174t180 -426t-180 -426t-430 -174q-252 0 -431 174t-179 426zM199 936q0 -223 152.5 -375.5t375.5 -152.5q221 0 374.5 152.5t153.5 375.5t-153.5 375.5t-374.5 152.5q-223 0 -375.5 -152.5t-152.5 -375.5zM406 623v51 q66 4 77 10q23 10 23 41v446q0 31 -21.5 43.5t-78.5 16.5v53h356q260 0 260 -156q0 -74 -53 -114q-39 -33 -129 -58q121 -29 157 -125l41 -106q12 -37 45 -45q23 -6 54 -6v-51h-254q-16 82 -58 186q-43 115 -137 115h-8v-195q0 -33 22 -41q41 -14 78 -14v-51h-374zM680 977 h8q150 0 150 143q0 111 -131 111h-27v-254z" />
<glyph unicode="&#xaf;" horiz-adv-x="763" d="M23 1331v164h718v-164h-718z" />
<glyph unicode="&#xb0;" horiz-adv-x="1044" d="M125 1208q0 170 107.5 277.5t285.5 107.5q168 0 279 -94q123 -105 123 -289q0 -156 -101 -258q-111 -115 -301 -114q-168 0 -280.5 103t-112.5 267zM356 1219q0 -283 170 -283q70 0 116 71.5t46 198.5q0 289 -168 289q-80 0 -122 -77t-42 -199z" />
<glyph unicode="&#xb1;" horiz-adv-x="1380" d="M158 53v160h450v391h-450v160h450v461h164v-461h451v-160h-451v-391h451v-160h-1065z" />
<glyph unicode="&#xb4;" horiz-adv-x="763" d="M135 1270l299 254q78 66 125 65q115 1 115 -116q0 -90 -109 -127l-395 -138z" />
<glyph unicode="&#xb6;" horiz-adv-x="1325" d="M88 1114q0 158 88 270q109 137 303 138h805v-109h-240v-1706h-116v1706h-189v-1706h-116v1012h-72q-250 0 -369 127q-94 102 -94 268z" />
<glyph unicode="&#xb7;" horiz-adv-x="634" d="M125 647q0 78 57.5 134.5t134.5 56.5q78 0 135.5 -56.5t57.5 -134.5t-57.5 -134t-135.5 -56t-135 56t-57 134z" />
<glyph unicode="&#xb8;" horiz-adv-x="763" d="M170 -338q137 0 180 8q88 14 88 72q0 45 -47 57q-25 6 -98 6v211h74v-102q258 0 258 -143q0 -125 -174 -166q-88 -20 -281 -21v78z" />
<glyph unicode="&#xba;" horiz-adv-x="1726" d="M143 0v1409l1440 -694z" />
<glyph unicode="&#xbb;" horiz-adv-x="1357" d="M141 172l312 399l-310 406l64 57l418 -321q75 -58 75 -138q0 -82 -75 -139l-420 -321zM651 172l312 399l-310 406l64 57l418 -321q75 -58 75 -138q0 -82 -75 -139l-420 -321z" />
<glyph unicode="&#xbc;" horiz-adv-x="2191" d="M152 1370l32 66q94 -45 191 -45q127 0 243 71h56q-23 -123 -23 -264v-487q0 -57 47 -76q61 -23 142 -29v-82h-633v82q113 8 147 21q49 18 49 75v578q-31 -10 -73 -10q-70 0 -178 100zM401 -82l1254 1540l98 -74l-1255 -1540zM1069 96v119l473 557h170v-569h223v-107h-223 v-119q0 -57 41 -71q33 -12 96 -17v-79h-516v79q39 2 101 9q43 12 43 69v129h-408zM1176 203h301v356z" />
<glyph unicode="&#xbd;" horiz-adv-x="2191" d="M152 1370l32 66q94 -45 191 -45q127 0 243 71h56q-23 -123 -23 -264v-487q0 -57 47 -76q61 -23 142 -29v-82h-633v82q113 8 147 21q49 18 49 75v578q-31 -10 -73 -10q-70 0 -178 100zM401 -82l1254 1540l98 -74l-1255 -1540zM1247 -188l25 159q172 102 237 152 q82 59 131 127q74 100 74 260q0 80 -37 125q-31 39 -80 39q-92 0 -106 -90q37 -74 37 -115q0 -45 -31 -78q-39 -39 -106 -39q-123 0 -123 148q0 86 86 164q104 96 280 96q150 0 251.5 -75t101.5 -189q0 -152 -100.5 -245t-389.5 -220v-23h348q66 0 111 64q20 29 55 114 l68 -24l-119 -350h-713z" />
<glyph unicode="&#xbe;" horiz-adv-x="2191" d="M178 707q0 66 39 110.5t107 44.5q127 0 127 -108q0 -45 -26 -70t-26 -35q0 -74 121 -74q76 0 135.5 72t59.5 184q0 129 -90 130q-63 0 -109 -66l-53 92q129 82 155 109q63 63 64 161q0 125 -119 125q-37 0 -61.5 -21.5t-28.5 -41.5q0 -4 12.5 -31.5t12.5 -56.5 q0 -113 -133 -113q-115 0 -115 119q0 84 90 152q104 78 272 77q170 0 258 -75q70 -57 70 -134q0 -172 -264 -213v-18q12 2 33 2q102 0 176 -41q98 -57 98 -170q0 -154 -132 -239.5t-345 -85.5q-127 0 -221 53q-106 59 -107 162zM520 -82l1254 1540l98 -74l-1256 -1540z M1174 96v119l473 557h170v-569h223v-107h-223v-119q0 -57 41 -71q33 -12 96 -17v-79h-516v79q39 2 100 9q43 12 43 69v129h-407zM1280 203h301v356z" />
<glyph unicode="&#xbf;" horiz-adv-x="1087" d="M102 399q0 209 136 351q131 135 337 159l7 187h104v-432q-309 -31 -309 -336q0 -125 57.5 -191.5t147.5 -66.5q86 0 139 53q-12 27 -27 51q-20 47 -20 88q0 166 164 166q78 0 118.5 -49t40.5 -125q0 -115 -126 -201t-304 -86q-205 0 -331 113q-133 119 -134 319z M446 1374q0 76 53.5 128t129.5 52t129 -52t53 -128t-53 -129t-129 -53t-129.5 53t-53.5 129z" />
<glyph unicode="&#xc0;" horiz-adv-x="1513" d="M-49 0v96q88 4 137 33q84 47 125 158l461 1257h190l477 -1323q23 -57 93 -90q59 -29 129 -35v-96h-766v94q211 12 211 43q0 20 -11 49l-110 316h-469q-86 -242 -86 -332q0 -61 227 -74v-96h-608zM430 1855q0 117 117 117q47 0 123 -55l315 -227l-31 -66l-403 105 q-121 31 -121 126zM465 625h375l-189 520z" />
<glyph unicode="&#xc1;" horiz-adv-x="1513" d="M-49 0v96q88 4 137 33q84 47 125 158l461 1257h190l477 -1323q23 -57 93 -90q59 -29 129 -35v-96h-766v94q211 12 211 43q0 20 -11 49l-110 316h-469q-86 -242 -86 -332q0 -61 227 -74v-96h-608zM465 625h375l-189 520zM530 1690l316 227q76 55 123 55q116 1 116 -114 q0 -98 -120 -129l-404 -105z" />
<glyph unicode="&#xc2;" horiz-adv-x="1513" d="M-49 0v96q88 4 137 33q84 47 125 158l461 1257h190l477 -1323q23 -57 93 -90q59 -29 129 -35v-96h-766v94q211 12 211 43q0 20 -11 49l-110 316h-469q-86 -242 -86 -332q0 -61 227 -74v-96h-608zM406 1630l219 279q41 53 131 53q86 0 125 -49l229 -283l-61 -45l-297 189 l-285 -189zM465 625h375l-189 520z" />
<glyph unicode="&#xc3;" horiz-adv-x="1513" d="M-49 0v96q88 4 137 33q84 47 125 158l461 1257h190l477 -1323q23 -57 93 -90q59 -29 129 -35v-96h-766v94q211 12 211 43q0 20 -11 49l-110 316h-469q-86 -242 -86 -332q0 -61 227 -74v-96h-608zM365 1665q29 104 94 176q78 88 178 88q90 0 184 -53q72 -41 131 -41 q78 0 103.5 19.5t62.5 97.5l78 -23q-23 -106 -94 -184q-82 -88 -187 -88q-84 0 -161 41q-109 57 -162 57q-59 0 -94 -33q-18 -18 -58 -90zM465 625h375l-189 520z" />
<glyph unicode="&#xc4;" horiz-adv-x="1513" d="M-49 0v96q88 4 137 33q84 47 125 158l461 1257h190l477 -1323q23 -57 93 -90q59 -29 129 -35v-96h-766v94q211 12 211 43q0 20 -11 49l-110 316h-469q-86 -242 -86 -332q0 -61 227 -74v-96h-608zM367 1802q0 61 41 105.5t100 44.5q61 0 103 -42.5t42 -97.5 q0 -61 -42 -108t-103 -47q-59 0 -100 43t-41 102zM465 625h375l-189 520zM862 1802q0 61 41 105.5t101 44.5q61 0 103 -42.5t42 -97.5q0 -61 -42 -108t-103 -47q-59 0 -100.5 43t-41.5 102z" />
<glyph unicode="&#xc5;" horiz-adv-x="1513" d="M-49 0v96q88 4 137 33q84 47 125 158l444 1208q-180 41 -180 199q0 92 80 151.5t205 59.5q131 0 208 -58.5t77 -152.5q0 -145 -168 -195l462 -1278q23 -57 93 -90q59 -29 129 -35v-96h-766v94q211 12 211 43q0 20 -11 49l-110 316h-469q-86 -242 -86 -332q0 -61 227 -74 v-96h-608zM465 625h375l-189 520zM645 1692q0 -145 117 -146q117 1 117 146q0 63 -32 104t-85 41q-117 0 -117 -145z" />
<glyph unicode="&#xc6;" horiz-adv-x="2191" d="M152 1370l32 66q94 -45 191 -45q127 0 243 71h56q-23 -123 -23 -264v-487q0 -57 47 -76q61 -23 142 -29v-82h-633v82q113 8 147 21q49 18 49 75v578q-31 -10 -73 -10q-70 0 -178 100zM401 -82l1254 1540l98 -74l-1255 -1540zM1247 -188l25 159q172 102 237 152 q82 59 131 127q74 100 74 260q0 80 -37 125q-31 39 -80 39q-92 0 -106 -90q37 -74 37 -115q0 -45 -31 -78q-39 -39 -106 -39q-123 0 -123 148q0 86 86 164q104 96 280 96q150 0 251.5 -75t101.5 -189q0 -152 -100.5 -245t-389.5 -220v-23h348q66 0 111 64q20 29 55 114 l68 -24l-119 -350h-713z" />
<glyph unicode="&#xc7;" horiz-adv-x="1454" d="M80 741q0 360 213 586.5t547 226.5q180 0 368 -100l43 84h95l8 -582h-101q-74 250 -168 367t-235 117q-186 0 -288.5 -172t-102.5 -486q0 -326 119 -493q111 -156 307 -156q143 0 250 80q92 70 182 223l90 -49q-178 -414 -600 -414h-29v-57q268 0 269 -147 q0 -113 -142 -154q-102 -31 -332 -31v76q135 0 187 10q92 16 92 74q0 45 -51 57q-25 6 -101 6v170q-274 37 -442 234q-178 209 -178 530z" />
<glyph unicode="&#xc8;" horiz-adv-x="1443" d="M45 0v96q129 6 162 21q63 27 63 108v1057q0 84 -63.5 110.5t-161.5 32.5v97h1258v-387h-91q-31 88 -90 165q-68 92 -133 101q-96 12 -170 12h-209v-567h131q127 0 181 57q23 25 48 89.5t29 107.5h91v-635h-91q-2 47 -29.5 117.5t-47.5 93.5q-47 55 -181 55h-131v-422 q0 -135 41 -166.5t201 -31.5q256 0 303 53q78 88 170 311h86l-27 -475h-1339zM414 1855q0 117 116 117q47 0 123 -55l316 -227l-31 -66l-403 105q-121 31 -121 126z" />
<glyph unicode="&#xc9;" horiz-adv-x="1443" d="M45 0v96q129 6 162 21q63 27 63 108v1057q0 84 -63.5 110.5t-161.5 32.5v97h1258v-387h-91q-31 88 -90 165q-68 92 -133 101q-96 12 -170 12h-209v-567h131q127 0 181 57q23 25 48 89.5t29 107.5h91v-635h-91q-2 47 -29.5 117.5t-47.5 93.5q-47 55 -181 55h-131v-422 q0 -135 41 -166.5t201 -31.5q256 0 303 53q78 88 170 311h86l-27 -475h-1339zM514 1690l315 227q76 55 123 55q117 1 117 -114q0 -98 -121 -129l-403 -105z" />
<glyph unicode="&#xca;" horiz-adv-x="1443" d="M45 0v96q129 6 162 21q63 27 63 108v1057q0 84 -63.5 110.5t-161.5 32.5v97h1258v-387h-91q-31 88 -90 165q-68 92 -133 101q-96 12 -170 12h-209v-567h131q127 0 181 57q23 25 48 89.5t29 107.5h91v-635h-91q-2 47 -29.5 117.5t-47.5 93.5q-47 55 -181 55h-131v-422 q0 -135 41 -166.5t201 -31.5q256 0 303 53q78 88 170 311h86l-27 -475h-1339zM395 1640l219 279q41 53 131 53q86 0 125 -49l230 -283l-62 -45l-297 189l-284 -189z" />
<glyph unicode="&#xcb;" horiz-adv-x="1443" d="M45 0v96q129 6 162 21q63 27 63 108v1057q0 84 -63.5 110.5t-161.5 32.5v97h1258v-387h-91q-31 88 -90 165q-68 92 -133 101q-96 12 -170 12h-209v-567h131q127 0 181 57q23 25 48 89.5t29 107.5h91v-635h-91q-2 47 -29.5 117.5t-47.5 93.5q-47 55 -181 55h-131v-422 q0 -135 41 -166.5t201 -31.5q256 0 303 53q78 88 170 311h86l-27 -475h-1339zM336 1823q0 61 41 105t100 44q61 0 103.5 -42t42.5 -97q0 -61 -42 -108.5t-104 -47.5q-59 0 -100 43t-41 103zM831 1823q0 61 41 105t101 44q61 0 103 -42t42 -97q0 -61 -42 -108.5t-103 -47.5 q-59 0 -100.5 43t-41.5 103z" />
<glyph unicode="&#xcc;" horiz-adv-x="890" d="M61 0v96q61 2 150 17q63 27 63 108v1061q0 82 -63.5 110.5t-149.5 32.5v97h768v-97q-104 -6 -149 -22q-63 -25 -64 -109v-1061q0 -82 64 -110q45 -20 149 -27v-96h-768zM184 1855q0 117 117 117q47 0 123 -55l315 -227l-30 -66l-404 105q-121 31 -121 126z" />
<glyph unicode="&#xcd;" horiz-adv-x="890" d="M61 0v96q61 2 150 17q63 27 63 108v1061q0 82 -63.5 110.5t-149.5 32.5v97h768v-97q-104 -6 -149 -22q-63 -25 -64 -109v-1061q0 -82 64 -110q45 -20 149 -27v-96h-768zM182 1690l316 227q76 55 123 55q116 1 116 -114q0 -98 -121 -129l-403 -105z" />
<glyph unicode="&#xce;" horiz-adv-x="890" d="M61 0v96q61 2 150 17q63 27 63 108v1061q0 82 -63.5 110.5t-149.5 32.5v97h768v-97q-104 -6 -149 -22q-63 -25 -64 -109v-1061q0 -82 64 -110q45 -20 149 -27v-96h-768zM94 1640l219 279q41 53 131 53q86 0 125 -49l230 -283l-62 -45l-297 189l-284 -189z" />
<glyph unicode="&#xcf;" horiz-adv-x="890" d="M61 0v96q61 2 150 17q63 27 63 108v1061q0 82 -63.5 110.5t-149.5 32.5v97h768v-97q-104 -6 -149 -22q-63 -25 -64 -109v-1061q0 -82 64 -110q45 -20 149 -27v-96h-768zM63 1823q0 61 41 105t101 44q61 0 103 -42t42 -97q0 -61 -42 -108.5t-103 -47.5q-59 0 -100.5 43 t-41.5 103zM543 1823q0 61 41 105t100 44q61 0 103 -42t42 -97q0 -61 -42 -108.5t-103 -47.5q-59 0 -100 43t-41 103z" />
<glyph unicode="&#xd0;" horiz-adv-x="1669" d="M55 0v96q115 0 152 17q63 27 63 108v510h-207v125h207v426q0 86 -63 115q-51 25 -144 28v97h719q299 0 518 -156q291 -206 291 -614q0 -367 -264 -572q-231 -180 -584 -180h-688zM610 272q0 -160 178 -159q211 0 318 174q100 166 100 469q0 297 -120.5 475t-327.5 178 q-70 0 -148 -4v-549h318v-125h-318v-459z" />
<glyph unicode="&#xd1;" horiz-adv-x="1667" d="M12 0v96q55 6 90 15q70 14 101 39q68 51 67 305v706q0 127 -57 185q-49 49 -201 81v95h533l739 -1018v553q0 238 -70 301q-25 23 -98 45q-66 20 -98 22v97h653v-97q-53 -6 -90 -14q-70 -14 -100 -39q-68 -51 -68 -305v-1075h-160l-854 1179v-704q0 -240 70 -303 q25 -23 98 -45q66 -20 99 -23v-96h-654zM451 1686q29 104 94 176q78 88 178 88q90 0 184 -54q72 -41 131 -41q78 0 103.5 19.5t62.5 97.5l78 -22q-23 -106 -94 -185q-82 -88 -187 -88q-84 0 -161 41q-109 57 -162 58q-59 0 -94 -33q-18 -18 -58 -90z" />
<glyph unicode="&#xd2;" horiz-adv-x="1681" d="M80 743q0 369 221 596q213 219 541 220q319 0 534 -209q226 -222 226 -580q0 -346 -201 -571q-213 -236 -567 -236q-315 0 -531 211q-223 219 -223 569zM467 756q0 -301 86 -477q98 -197 289 -197q190 0 286 194q86 177 86 488q0 291 -79 467q-96 209 -293 209 q-182 0 -278.5 -177.5t-96.5 -506.5zM553 1855q0 117 117 117q47 0 123 -55l315 -227l-31 -66l-403 105q-121 31 -121 126z" />
<glyph unicode="&#xd3;" horiz-adv-x="1681" d="M80 743q0 369 221 596q213 219 541 220q319 0 534 -209q226 -222 226 -580q0 -346 -201 -571q-213 -236 -567 -236q-315 0 -531 211q-223 219 -223 569zM467 756q0 -301 86 -477q98 -197 289 -197q190 0 286 194q86 177 86 488q0 291 -79 467q-96 209 -293 209 q-182 0 -278.5 -177.5t-96.5 -506.5zM580 1690l315 227q76 55 123 55q117 1 117 -114q0 -98 -121 -129l-404 -105z" />
<glyph unicode="&#xd4;" horiz-adv-x="1681" d="M80 743q0 369 221 596q213 219 541 220q319 0 534 -209q226 -222 226 -580q0 -346 -201 -571q-213 -236 -567 -236q-315 0 -531 211q-223 219 -223 569zM467 756q0 -301 86 -477q98 -197 289 -197q190 0 286 194q86 177 86 488q0 291 -79 467q-96 209 -293 209 q-182 0 -278.5 -177.5t-96.5 -506.5zM489 1640l220 279q41 53 131 53q86 0 125 -49l229 -283l-61 -45l-297 189l-285 -189z" />
<glyph unicode="&#xd5;" horiz-adv-x="1681" d="M80 743q0 369 221 596q213 219 541 220q319 0 534 -209q226 -222 226 -580q0 -346 -201 -571q-213 -236 -567 -236q-315 0 -531 211q-223 219 -223 569zM426 1686q29 104 94 176q78 88 178 88q90 0 185 -54q72 -41 131 -41q78 0 103.5 19.5t62.5 97.5l77 -22 q-23 -106 -94 -185q-82 -88 -186 -88q-84 0 -162 41q-109 57 -162 58q-59 0 -94 -33q-18 -18 -57 -90zM467 756q0 -301 86 -477q98 -197 289 -197q190 0 286 194q86 177 86 488q0 291 -79 467q-96 209 -293 209q-182 0 -278.5 -177.5t-96.5 -506.5z" />
<glyph unicode="&#xd6;" horiz-adv-x="1681" d="M80 743q0 369 221 596q213 219 541 220q319 0 534 -209q226 -222 226 -580q0 -346 -201 -571q-213 -236 -567 -236q-315 0 -531 211q-223 219 -223 569zM451 1823q0 61 40.5 105t100.5 44q61 0 103 -42t42 -97q0 -61 -42 -108.5t-103 -47.5q-59 0 -100 43t-41 103z M467 756q0 -301 86 -477q98 -197 289 -197q190 0 286 194q86 177 86 488q0 291 -79 467q-96 209 -293 209q-182 0 -278.5 -177.5t-96.5 -506.5zM946 1823q0 61 41 105t100 44q61 0 103.5 -42t42.5 -97q0 -61 -42 -108.5t-104 -47.5q-59 0 -100 43t-41 103z" />
<glyph unicode="&#xd7;" horiz-adv-x="1380" d="M193 252l387 383l-387 383l114 115l383 -388l383 388l115 -115l-387 -383l387 -383l-115 -115l-383 387l-383 -387z" />
<glyph unicode="&#xd9;" horiz-adv-x="1683" d="M37 1427v95h762v-95q-102 -6 -148 -22q-63 -25 -63 -109v-768q0 -217 82 -312t256 -95q356 0 356 422v514q0 238 -70 301q-25 23 -98 45q-66 20 -98 22v97h653v-97q-53 -6 -90 -14q-70 -14 -100 -39q-68 -51 -68 -305v-555q0 -260 -162 -408q-152 -139 -395 -139 q-293 0 -451.5 142.5t-158.5 400.5v776q0 104 -119 131q-41 10 -88 12zM596 1855q0 117 117 117q47 0 123 -55l315 -227l-31 -66l-403 105q-121 31 -121 126z" />
<glyph unicode="&#xda;" horiz-adv-x="1683" d="M37 1427v95h762v-95q-102 -6 -148 -22q-63 -25 -63 -109v-768q0 -217 82 -312t256 -95q356 0 356 422v514q0 238 -70 301q-25 23 -98 45q-66 20 -98 22v97h653v-97q-53 -6 -90 -14q-70 -14 -100 -39q-68 -51 -68 -305v-555q0 -260 -162 -408q-152 -139 -395 -139 q-293 0 -451.5 142.5t-158.5 400.5v776q0 104 -119 131q-41 10 -88 12zM653 1690l316 227q76 55 123 55q116 1 116 -114q0 -98 -121 -129l-403 -105z" />
<glyph unicode="&#xdb;" horiz-adv-x="1683" d="M37 1427v95h762v-95q-102 -6 -148 -22q-63 -25 -63 -109v-768q0 -217 82 -312t256 -95q356 0 356 422v514q0 238 -70 301q-25 23 -98 45q-66 20 -98 22v97h653v-97q-53 -6 -90 -14q-70 -14 -100 -39q-68 -51 -68 -305v-555q0 -260 -162 -408q-152 -139 -395 -139 q-293 0 -451.5 142.5t-158.5 400.5v776q0 104 -119 131q-41 10 -88 12zM545 1640l219 279q41 53 131 53q86 0 125 -49l229 -283l-61 -45l-297 189l-285 -189z" />
<glyph unicode="&#xdc;" horiz-adv-x="1683" d="M37 1427v95h762v-95q-102 -6 -148 -22q-63 -25 -63 -109v-768q0 -217 82 -312t256 -95q356 0 356 422v514q0 238 -70 301q-25 23 -98 45q-66 20 -98 22v97h653v-97q-53 -6 -90 -14q-70 -14 -100 -39q-68 -51 -68 -305v-555q0 -260 -162 -408q-152 -139 -395 -139 q-293 0 -451.5 142.5t-158.5 400.5v776q0 104 -119 131q-41 10 -88 12zM492 1823q0 61 40.5 105t100.5 44q61 0 103 -42t42 -97q0 -61 -42 -108.5t-103 -47.5q-59 0 -100 43t-41 103zM987 1823q0 61 41 105t100 44q61 0 103.5 -42t42.5 -97q0 -61 -42 -108.5t-104 -47.5 q-59 0 -100 43t-41 103z" />
<glyph unicode="&#xdd;" horiz-adv-x="1460" d="M-63 1425v97h806v-97q-207 -12 -206 -32q0 -68 313 -627q317 545 317 600q0 47 -192 59v97h559v-97q-76 -10 -123 -34q-80 -41 -141 -142q-113 -180 -285 -483q-88 -156 -88 -317v-207q0 -86 64 -115q53 -25 167 -31v-96h-804v96q135 8 168 21q63 27 63 112v263 q0 117 -66 241q-186 352 -282 524q-63 111 -158 148q-47 16 -112 20zM545 1690l315 227q76 55 123 55q117 1 117 -114q0 -98 -121 -129l-404 -105z" />
<glyph unicode="&#xde;" horiz-adv-x="1398" d="M45 0v96q129 6 162 21q63 27 63 108v1057q0 84 -63.5 110.5t-161.5 32.5v97h797v-97q-133 -8 -166 -20q-63 -27 -64 -109v-75h201q537 -1 537 -392q0 -242 -193 -372q-172 -115 -434 -115h-111v-109q0 -82 64 -110q45 -20 153 -27v-96h-784zM612 455h56q315 -1 315 325 q0 168 -63 246q-68 86 -218 86h-90v-657z" />
<glyph unicode="&#xdf;" horiz-adv-x="1409" d="M57 948v125h179q4 238 149 384.5t381 146.5q176 0 293 -80t117 -213q0 -98 -33 -155.5t-144 -135.5q-49 -35 -49 -55q0 -49 39 -94.5t191 -165.5q106 -84 150 -165t44 -196q0 -156 -114.5 -263.5t-290.5 -107.5q-141 0 -226.5 62.5t-85.5 167.5q0 74 42 121t108 47 q135 0 135 -119q0 -45 -36 -84t-36 -43q0 -23 27 -41t68 -18q66 0 108.5 43t42.5 118q0 82 -29 131q-39 66 -161 156q-209 154 -209 285q0 78 119 215q74 86 73 262q0 104 -49 164q-45 53 -115 53q-203 0 -213 -414q-2 -84 -2 -118v-961h-462v90q43 2 112 14q55 20 56 95 v749h-179z" />
<glyph unicode="&#xe0;" horiz-adv-x="1214" d="M80 242q0 137 67 215q49 55 154 98q41 16 221 76q139 47 189 76v104q0 78 -31 135q-43 78 -131 78q-74 0 -125 -43q0 -2 18 -55q12 -37 13 -76q0 -51 -35 -88q-43 -47 -127 -47q-164 0 -164 157q0 106 145 185q135 74 291 73q215 0 314 -61q129 -82 129 -299 q0 -125 -7.5 -318.5t-7.5 -215.5q0 -104 82 -105q70 0 74 186h94q-10 -344 -295 -344q-100 0 -155 43q-41 33 -80 113h-4q-135 -158 -349 -158q-121 0 -200.5 77t-79.5 194zM303 1473q0 117 115 116q47 0 125 -65l299 -254l-35 -62l-395 138q-109 37 -109 127zM395 307 q0 -170 140 -170q109 0 170 88l8 381q-172 -72 -217 -104q-100 -74 -101 -195z" />
<glyph unicode="&#xe1;" horiz-adv-x="1214" d="M80 242q0 137 67 215q49 55 154 98q41 16 221 76q139 47 189 76v104q0 78 -31 135q-43 78 -131 78q-74 0 -125 -43q0 -2 18 -55q12 -37 13 -76q0 -51 -35 -88q-43 -47 -127 -47q-164 0 -164 157q0 106 145 185q135 74 291 73q215 0 314 -61q129 -82 129 -299 q0 -125 -7.5 -318.5t-7.5 -215.5q0 -104 82 -105q70 0 74 186h94q-10 -344 -295 -344q-100 0 -155 43q-41 33 -80 113h-4q-135 -158 -349 -158q-121 0 -200.5 77t-79.5 194zM352 1270l299 254q78 66 125 65q115 1 115 -116q0 -90 -109 -127l-395 -138zM395 307 q0 -170 140 -170q109 0 170 88l8 381q-172 -72 -217 -104q-100 -74 -101 -195z" />
<glyph unicode="&#xe2;" horiz-adv-x="1214" d="M80 242q0 137 67 215q49 55 154 98q41 16 221 76q139 47 189 76v104q0 78 -31 135q-43 78 -131 78q-74 0 -125 -43q0 -2 18 -55q12 -37 13 -76q0 -51 -35 -88q-43 -47 -127 -47q-164 0 -164 157q0 106 145 185q135 74 291 73q215 0 314 -61q129 -82 129 -299 q0 -125 -7.5 -318.5t-7.5 -215.5q0 -104 82 -105q70 0 74 186h94q-10 -344 -295 -344q-100 0 -155 43q-41 33 -80 113h-4q-135 -158 -349 -158q-121 0 -200.5 77t-79.5 194zM225 1237l230 299q41 53 125 53q82 0 118 -49l232 -303l-62 -45l-293 211l-288 -211zM395 307 q0 -170 140 -170q109 0 170 88l8 381q-172 -72 -217 -104q-100 -74 -101 -195z" />
<glyph unicode="&#xe3;" horiz-adv-x="1214" d="M80 242q0 137 67 215q49 55 154 98q41 16 221 76q139 47 189 76v104q0 78 -31 135q-43 78 -131 78q-74 0 -125 -43q0 -2 18 -55q12 -37 13 -76q0 -51 -35 -88q-43 -47 -127 -47q-164 0 -164 157q0 106 145 185q135 74 291 73q215 0 314 -61q129 -82 129 -299 q0 -125 -7.5 -318.5t-7.5 -215.5q0 -104 82 -105q70 0 74 186h94q-10 -344 -295 -344q-100 0 -155 43q-41 33 -80 113h-4q-135 -158 -349 -158q-121 0 -200.5 77t-79.5 194zM190 1303q29 104 93 176q76 88 176 88q86 0 180 -54q72 -41 127 -40q78 0 103.5 18t58.5 98l78 -22 q-23 -106 -93 -185q-80 -88 -184 -88q-80 0 -158 41q-109 57 -157 58q-59 0 -92 -33q-18 -18 -56 -90zM395 307q0 -170 140 -170q109 0 170 88l8 381q-172 -72 -217 -104q-100 -74 -101 -195z" />
<glyph unicode="&#xe4;" horiz-adv-x="1214" d="M80 242q0 137 67 215q49 55 154 98q41 16 221 76q139 47 189 76v104q0 78 -31 135q-43 78 -131 78q-74 0 -125 -43q0 -2 18 -55q12 -37 13 -76q0 -51 -35 -88q-43 -47 -127 -47q-164 0 -164 157q0 106 145 185q135 74 291 73q215 0 314 -61q129 -82 129 -299 q0 -125 -7.5 -318.5t-7.5 -215.5q0 -104 82 -105q70 0 74 186h94q-10 -344 -295 -344q-100 0 -155 43q-41 33 -80 113h-4q-135 -158 -349 -158q-121 0 -200.5 77t-79.5 194zM213 1438q0 61 41 106t100 45q61 0 103.5 -43t42.5 -98q0 -63 -43 -110.5t-103 -47.5 q-59 0 -100 44t-41 104zM395 307q0 -170 140 -170q109 0 170 88l8 381q-172 -72 -217 -104q-100 -74 -101 -195zM674 1438q0 61 41 106t100 45q61 0 103.5 -43t42.5 -98q0 -63 -43.5 -110.5t-102.5 -47.5t-100 44t-41 104z" />
<glyph unicode="&#xe5;" horiz-adv-x="1214" d="M80 242q0 137 67 215q49 55 154 98q41 16 221 76q139 47 189 76v104q0 78 -31 135q-43 78 -131 78q-74 0 -125 -43q0 -2 18 -55q12 -37 13 -76q0 -51 -35 -88q-43 -47 -127 -47q-164 0 -164 157q0 106 145 185q135 74 291 73q215 0 314 -61q129 -82 129 -299 q0 -125 -7.5 -318.5t-7.5 -215.5q0 -104 82 -105q70 0 74 186h94q-10 -344 -295 -344q-100 0 -155 43q-41 33 -80 113h-4q-135 -158 -349 -158q-121 0 -200.5 77t-79.5 194zM293 1386q0 92 78 149.5t202 57.5q131 0 206 -56.5t75 -150.5q0 -92 -74.5 -149t-206.5 -57 q-133 0 -206.5 56t-73.5 150zM395 307q0 -170 140 -170q109 0 170 88l8 381q-172 -72 -217 -104q-100 -74 -101 -195zM461 1386q0 -143 112 -143q113 0 113 143t-113 144q-113 0 -112 -144z" />
<glyph unicode="&#xe6;" horiz-adv-x="2191" d="M152 1370l32 66q94 -45 191 -45q127 0 243 71h56q-23 -123 -23 -264v-487q0 -57 47 -76q61 -23 142 -29v-82h-633v82q113 8 147 21q49 18 49 75v578q-31 -10 -73 -10q-70 0 -178 100zM401 -82l1254 1540l98 -74l-1255 -1540zM1069 96v119l473 557h170v-569h223v-107h-223 v-119q0 -57 41 -71q33 -12 96 -17v-79h-516v79q39 2 101 9q43 12 43 69v129h-408zM1176 203h301v356z" />
<glyph unicode="&#xe7;" horiz-adv-x="1048" d="M72 555q0 233 147 399q158 176 404 176q184 0 286 -81q96 -76 97 -201q0 -174 -168 -174q-61 0 -109 33q-59 39 -59 108q0 53 17.5 95t17.5 51q-10 63 -93 63q-94 0 -151 -98q-68 -117 -68 -357q0 -195 84 -315q78 -117 199 -117q109 0 176 60q53 43 113 155l77 -67 q-61 -137 -172 -219q-119 -88 -264 -89q-29 0 -43 3v-66q258 0 258 -143q0 -125 -174 -166q-88 -20 -280 -21v78q137 0 180 8q88 14 88 72q0 45 -47 57q-25 6 -99 6v181q-201 35 -313 196q-104 150 -104 373z" />
<glyph unicode="&#xe8;" horiz-adv-x="1150" d="M72 555q0 233 143 399q152 176 393 176q246 0 369 -141q109 -123 108 -330v-77h-696q0 -207 92 -324t262 -117q184 0 299 203l76 -72q-68 -131 -199 -215t-286 -84q-272 0 -422 170q-139 158 -139 412zM326 1473q0 117 114 116q47 0 125 -65l299 -254l-35 -62l-395 138 q-109 37 -108 127zM389 682l383 6q0 338 -176 338q-92 0 -145 -84q-59 -90 -62 -260z" />
<glyph unicode="&#xe9;" horiz-adv-x="1150" d="M72 555q0 233 143 399q152 176 393 176q246 0 369 -141q109 -123 108 -330v-77h-696q0 -207 92 -324t262 -117q184 0 299 203l76 -72q-68 -131 -199 -215t-286 -84q-272 0 -422 170q-139 158 -139 412zM385 1270l299 254q78 66 125 65q115 1 115 -116q0 -90 -109 -127 l-395 -138zM389 682l383 6q0 338 -176 338q-92 0 -145 -84q-59 -90 -62 -260z" />
<glyph unicode="&#xea;" horiz-adv-x="1150" d="M72 555q0 233 143 399q152 176 393 176q246 0 369 -141q109 -123 108 -330v-77h-696q0 -207 92 -324t262 -117q184 0 299 203l76 -72q-68 -131 -199 -215t-286 -84q-272 0 -422 170q-139 158 -139 412zM250 1237l229 299q41 53 125 53q82 0 119 -49l231 -303l-61 -45 l-293 211l-289 -211zM389 682l383 6q0 338 -176 338q-92 0 -145 -84q-59 -90 -62 -260z" />
<glyph unicode="&#xeb;" horiz-adv-x="1150" d="M72 555q0 233 143 399q152 176 393 176q246 0 369 -141q109 -123 108 -330v-77h-696q0 -207 92 -324t262 -117q184 0 299 203l76 -72q-68 -131 -199 -215t-286 -84q-272 0 -422 170q-139 158 -139 412zM238 1438q0 61 40.5 106t100.5 45q61 0 103 -43t42 -98 q0 -63 -43 -110.5t-102 -47.5t-100 44t-41 104zM389 682l383 6q0 338 -176 338q-92 0 -145 -84q-59 -90 -62 -260zM698 1438q0 61 41 106t101 45q61 0 103 -43t42 -98q0 -63 -43 -110.5t-102 -47.5t-100.5 44t-41.5 104z" />
<glyph unicode="&#xec;" horiz-adv-x="749" d="M39 999v88l481 35l15 -16v-893q0 -115 167 -123v-90h-630v90q39 0 108 10q59 20 60 99v649q0 78 -60 117q-45 31 -141 34zM43 1473q0 117 115 116q53 0 125 -65l278 -254l-35 -62l-374 138q-109 39 -109 127z" />
<glyph unicode="&#xed;" horiz-adv-x="749" d="M39 999v88l481 35l15 -16v-893q0 -115 167 -123v-90h-630v90q39 0 108 10q59 20 60 99v649q0 78 -60 117q-45 31 -141 34zM90 1270l279 254q72 66 125 65q114 1 114 -116q0 -88 -108 -127l-375 -138z" />
<glyph unicode="&#xee;" horiz-adv-x="749" d="M-2 1237l209 299q37 53 125 53q84 0 119 -49l211 -303l-62 -45l-272 211l-269 -211zM39 999v88l481 35l15 -16v-893q0 -115 167 -123v-90h-630v90q39 0 108 10q59 20 60 99v649q0 78 -60 117q-45 31 -141 34z" />
<glyph unicode="&#xef;" horiz-adv-x="749" d="M6 1438q0 61 41 106t100 45q61 0 103.5 -43t42.5 -98q0 -63 -43 -110.5t-103 -47.5q-59 0 -100 44t-41 104zM39 999v88l481 35l15 -16v-893q0 -115 167 -123v-90h-630v90q39 0 108 10q59 20 60 99v649q0 78 -60 117q-45 31 -141 34zM428 1438q0 61 41 106t100 45 q61 0 103.5 -43t42.5 -98q0 -63 -43 -110.5t-103 -47.5q-59 0 -100 44t-41 104z" />
<glyph unicode="&#xf0;" horiz-adv-x="1259" d="M74 524q0 240 135 386.5t354 146.5q94 0 174 -43q72 -39 109 -96l6 2q-23 188 -190 387l-283 -146l-53 90l262 135q-82 82 -187 144l127 67q121 -59 220 -129l251 129l54 -90l-213 -108q344 -285 344 -721q0 -322 -148 -510q-150 -195 -418 -195q-225 0 -378 142 q-166 154 -166 409zM401 537q0 -453 232 -453q223 0 223 467q0 168 -55 274q-59 117 -166 117q-233 0 -234 -405z" />
<glyph unicode="&#xf1;" horiz-adv-x="1415" d="M55 1001v89l449 32l14 -14l10 -170h4q100 98 148 127q100 66 227 65q305 0 305 -364v-561q0 -70 60 -96q33 -14 106 -19v-90h-596v90q66 0 84 8q49 23 49 101v530q0 111 -47 174q-41 55 -104 55q-90 0 -160 -61q-55 -45 -76 -100v-588q0 -111 138 -119v-90h-600v90 q86 0 106 8q61 25 61 101v657q0 76 -61 117q-37 25 -117 28zM293 1303q29 104 92 176q76 88 176 88q86 0 180 -54q72 -41 127 -40q78 0 103.5 18t58.5 98l78 -22q-23 -106 -92 -185q-80 -88 -185 -88q-80 0 -157 41q-109 57 -158 58q-59 0 -92 -33q-18 -18 -55 -90z" />
<glyph unicode="&#xf2;" horiz-adv-x="1271" d="M74 549q0 256 156.5 418.5t410.5 162.5t405.5 -159.5t151.5 -405.5q0 -252 -147 -415q-158 -176 -424 -177q-229 0 -387 156q-166 164 -166 420zM338 1473q0 117 115 116q47 0 125 -65l299 -254l-35 -62l-396 138q-109 37 -108 127zM401 567q0 -215 56 -340 q61 -143 182 -143q117 0 178 139q53 125 53 338q0 459 -231 459q-238 0 -238 -453z" />
<glyph unicode="&#xf3;" horiz-adv-x="1271" d="M74 549q0 256 156.5 418.5t410.5 162.5t405.5 -159.5t151.5 -405.5q0 -252 -147 -415q-158 -176 -424 -177q-229 0 -387 156q-166 164 -166 420zM401 567q0 -215 56 -340q61 -143 182 -143q117 0 178 139q53 125 53 338q0 459 -231 459q-238 0 -238 -453zM412 1270 l299 254q78 66 125 65q114 1 114 -116q0 -90 -108 -127l-396 -138z" />
<glyph unicode="&#xf4;" horiz-adv-x="1271" d="M74 549q0 256 156.5 418.5t410.5 162.5t405.5 -159.5t151.5 -405.5q0 -252 -147 -415q-158 -176 -424 -177q-229 0 -387 156q-166 164 -166 420zM287 1237l229 299q41 53 125 53q82 0 119 -49l231 -303l-61 -45l-293 211l-289 -211zM401 567q0 -215 56 -340 q61 -143 182 -143q117 0 178 139q53 125 53 338q0 459 -231 459q-238 0 -238 -453z" />
<glyph unicode="&#xf5;" horiz-adv-x="1271" d="M74 549q0 256 156.5 418.5t410.5 162.5t405.5 -159.5t151.5 -405.5q0 -252 -147 -415q-158 -176 -424 -177q-229 0 -387 156q-166 164 -166 420zM233 1303q29 104 93 176q76 88 176 88q86 0 180 -54q72 -41 127 -40q78 0 103.5 18t58.5 98l78 -22q-23 -106 -93 -185 q-80 -88 -184 -88q-80 0 -158 41q-109 57 -157 58q-59 0 -92 -33q-18 -18 -56 -90zM401 567q0 -215 56 -340q61 -143 182 -143q117 0 178 139q53 125 53 338q0 459 -231 459q-238 0 -238 -453z" />
<glyph unicode="&#xf6;" horiz-adv-x="1271" d="M74 549q0 256 156.5 418.5t410.5 162.5t405.5 -159.5t151.5 -405.5q0 -252 -147 -415q-158 -176 -424 -177q-229 0 -387 156q-166 164 -166 420zM262 1438q0 61 41 106t100 45q61 0 103.5 -43t42.5 -98q0 -63 -43 -110.5t-103 -47.5q-59 0 -100 44t-41 104zM401 567 q0 -215 56 -340q61 -143 182 -143q117 0 178 139q53 125 53 338q0 459 -231 459q-238 0 -238 -453zM723 1438q0 61 41 106t100 45q61 0 103.5 -43t42.5 -98q0 -63 -43 -110.5t-103 -47.5q-59 0 -100 44t-41 104z" />
<glyph unicode="&#xf7;" horiz-adv-x="1380" d="M150 555v162h1081v-162h-1081zM526 195q0 68 48.5 115.5t115.5 47.5q68 0 117 -47.5t49 -115.5t-49 -115t-117 -47t-116 47t-48 115zM526 1073q0 68 48.5 115t115.5 47q68 0 117 -47t49 -115t-49 -117t-117 -49t-116 49.5t-48 116.5z" />
<glyph unicode="&#xf9;" horiz-adv-x="1378" d="M20 999v88l467 35l13 -16v-744q0 -109 43 -167t104 -58q143 0 221 164v567q0 74 -45 111q-18 16 -127 20v88l453 35l14 -16v-864q0 -70 60 -107q29 -18 116 -22v-88l-442 -27l-16 18l-11 144h-6q-90 -94 -143 -125q-94 -59 -223 -60q-295 0 -295 377v508q0 70 -68 113 q-37 23 -115 26zM389 1473q0 117 115 116q47 0 125 -65l299 -254l-35 -62l-395 138q-109 37 -109 127z" />
<glyph unicode="&#xfa;" horiz-adv-x="1378" d="M20 999v88l467 35l13 -16v-744q0 -109 43 -167t104 -58q143 0 221 164v567q0 74 -45 111q-18 16 -127 20v88l453 35l14 -16v-864q0 -70 60 -107q29 -18 116 -22v-88l-442 -27l-16 18l-11 144h-6q-90 -94 -143 -125q-94 -59 -223 -60q-295 0 -295 377v508q0 70 -68 113 q-37 23 -115 26zM436 1270l299 254q78 66 125 65q115 1 115 -116q0 -90 -109 -127l-395 -138z" />
<glyph unicode="&#xfb;" horiz-adv-x="1378" d="M20 999v88l467 35l13 -16v-744q0 -109 43 -167t104 -58q143 0 221 164v567q0 74 -45 111q-18 16 -127 20v88l453 35l14 -16v-864q0 -70 60 -107q29 -18 116 -22v-88l-442 -27l-16 18l-11 144h-6q-90 -94 -143 -125q-94 -59 -223 -60q-295 0 -295 377v508q0 70 -68 113 q-37 23 -115 26zM299 1237l229 299q41 53 125 53q82 0 119 -49l232 -303l-62 -45l-293 211l-289 -211z" />
<glyph unicode="&#xfc;" horiz-adv-x="1378" d="M20 999v88l467 35l13 -16v-744q0 -109 43 -167t104 -58q143 0 221 164v567q0 74 -45 111q-18 16 -127 20v88l453 35l14 -16v-864q0 -70 60 -107q29 -18 116 -22v-88l-442 -27l-16 18l-11 144h-6q-90 -94 -143 -125q-94 -59 -223 -60q-295 0 -295 377v508q0 70 -68 113 q-37 23 -115 26zM287 1438q0 61 41 106t100 45q61 0 103 -43t42 -98q0 -63 -43 -110.5t-102 -47.5t-100 44t-41 104zM748 1438q0 61 40.5 106t100.5 45q61 0 103 -43t42 -98q0 -63 -43 -110.5t-102 -47.5t-100 44t-41 104z" />
<glyph unicode="&#xfd;" horiz-adv-x="1128" d="M-14 1012v90h585v-92q-70 -2 -79 -4q-45 -8 -46 -35q0 -16 15 -49q66 -152 227 -523q27 66 186 478q10 27 11 67q0 51 -152 70v88h432v-86q-127 -27 -166 -117q-96 -221 -190 -465q-117 -299 -125 -319q-133 -326 -252 -443q-88 -88 -215 -88q-72 0 -131 45 q-70 53 -70 138q0 66 43 119t113 53q158 0 158 -150v-49q53 10 114 106q6 12 97 187q-162 360 -396 876q-39 82 -159 103zM352 1270l299 254q78 66 125 65q115 1 115 -116q0 -90 -109 -127l-395 -138z" />
<glyph unicode="&#xfe;" horiz-adv-x="1325" d="M-33 1481v86l496 30l14 -18v-600l8 -4q143 156 306 155q199 0 329.5 -160.5t130.5 -416.5q0 -236 -149.5 -396.5t-351.5 -160.5q-162 0 -263 76h-8v-262q0 -76 62 -105q53 -25 166 -31v-90h-713v90q98 6 131 17q59 20 59 106v1528q0 90 -61 127q-25 16 -156 29zM479 285 q49 -162 205 -162q111 0 172 102q68 113 68 330q0 176 -58 283q-66 123 -196 123q-115 0 -191 -109v-567z" />
<glyph unicode="&#xff;" horiz-adv-x="1128" d="M-14 1012v90h585v-92q-70 -2 -79 -4q-45 -8 -46 -35q0 -16 15 -49q66 -152 227 -523q27 66 186 478q10 27 11 67q0 51 -152 70v88h432v-86q-127 -27 -166 -117q-96 -221 -190 -465q-117 -299 -125 -319q-133 -326 -252 -443q-88 -88 -215 -88q-72 0 -131 45 q-70 53 -70 138q0 66 43 119t113 53q158 0 158 -150v-49q53 10 114 106q6 12 97 187q-162 360 -396 876q-39 82 -159 103zM250 1438q0 61 41 106t100 45q61 0 103.5 -43t42.5 -98q0 -63 -43 -110.5t-103 -47.5q-59 0 -100 44t-41 104zM711 1438q0 61 41 106t100 45 q61 0 103 -43t42 -98q0 -63 -43 -110.5t-102 -47.5t-100 44t-41 104z" />
<glyph unicode="&#x152;" horiz-adv-x="2191" d="M178 707q0 66 39 110.5t107 44.5q127 0 127 -108q0 -45 -26 -70t-26 -35q0 -74 121 -74q76 0 135.5 72t59.5 184q0 129 -90 130q-63 0 -109 -66l-53 92q129 82 155 109q63 63 64 161q0 125 -119 125q-37 0 -61.5 -21.5t-28.5 -41.5q0 -4 12.5 -31.5t12.5 -56.5 q0 -113 -133 -113q-115 0 -115 119q0 84 90 152q104 78 272 77q170 0 258 -75q70 -57 70 -134q0 -172 -264 -213v-18q12 2 33 2q102 0 176 -41q98 -57 98 -170q0 -154 -132 -239.5t-345 -85.5q-127 0 -221 53q-106 59 -107 162zM520 -82l1254 1540l98 -74l-1256 -1540z M1174 96v119l473 557h170v-569h223v-107h-223v-119q0 -57 41 -71q33 -12 96 -17v-79h-516v79q39 2 100 9q43 12 43 69v129h-407zM1280 203h301v356z" />
<glyph unicode="&#x153;" horiz-adv-x="2191" d="M125 1083l111 439h71l12 -84h644v-80q-139 -162 -170 -199q-74 -96 -127 -198q-94 -184 -109 -410q-8 -143 -125 -143q-115 0 -115 118q0 104 179 381q57 90 127 178q63 82 127 164h-369q-117 0 -174 -182zM307 -82l1254 1540l98 -74l-1256 -1540zM1147 18q0 90 74 156 q57 53 139 76q-172 80 -172 231q0 121 112.5 199t266.5 78q166 0 263 -62.5t97 -167.5q0 -133 -178 -202q219 -78 219 -248q0 -135 -135 -219q-125 -76 -311 -76q-164 0 -269.5 66.5t-105.5 168.5zM1364 27q0 -70 47 -113t135 -43q78 0 130.5 40t52.5 114q0 133 -277 186 q-88 -57 -88 -184zM1417 539q0 -72 55.5 -113t186.5 -61q65 40 65 165q0 139 -157 140q-68 0 -109 -37t-41 -94z" />
<glyph unicode="&#x178;" horiz-adv-x="1460" d="M-63 1425v97h806v-97q-207 -12 -206 -32q0 -68 313 -627q317 545 317 600q0 47 -192 59v97h559v-97q-76 -10 -123 -34q-80 -41 -141 -142q-113 -180 -285 -483q-88 -156 -88 -317v-207q0 -86 64 -115q53 -25 167 -31v-96h-804v96q135 8 168 21q63 27 63 112v263 q0 117 -66 241q-186 352 -282 524q-63 111 -158 148q-47 16 -112 20zM426 1823q0 61 41 105t100 44q61 0 103.5 -42t42.5 -97q0 -61 -42 -108.5t-104 -47.5q-59 0 -100 43t-41 103zM922 1823q0 61 41 105t100 44q61 0 103 -42t42 -97q0 -61 -42 -108.5t-103 -47.5 q-59 0 -100 43t-41 103z" />
<glyph unicode="&#x2c6;" horiz-adv-x="763" d="M31 1237l229 299q41 53 125 53q82 0 119 -49l231 -303l-61 -45l-293 211l-289 -211z" />
<glyph unicode="&#x2dc;" horiz-adv-x="763" d="M-25 1303q29 104 93 176q76 88 176 88q86 0 180 -54q72 -41 127 -40q78 0 103.5 18t58.5 98l78 -22q-23 -106 -93 -185q-80 -88 -184 -88q-80 0 -158 41q-109 57 -157 58q-59 0 -93 -33q-18 -18 -55 -90z" />
<glyph unicode="&#x2000;" horiz-adv-x="986" />
<glyph unicode="&#x2001;" horiz-adv-x="1972" />
<glyph unicode="&#x2002;" horiz-adv-x="986" />
<glyph unicode="&#x2003;" horiz-adv-x="1972" />
<glyph unicode="&#x2004;" horiz-adv-x="657" />
<glyph unicode="&#x2005;" horiz-adv-x="493" />
<glyph unicode="&#x2006;" horiz-adv-x="328" />
<glyph unicode="&#x2007;" horiz-adv-x="328" />
<glyph unicode="&#x2008;" horiz-adv-x="246" />
<glyph unicode="&#x2009;" horiz-adv-x="394" />
<glyph unicode="&#x200a;" horiz-adv-x="109" />
<glyph unicode="&#x2010;" horiz-adv-x="688" d="M72 494v204h544v-204h-544z" />
<glyph unicode="&#x2011;" horiz-adv-x="688" d="M72 494v204h544v-204h-544z" />
<glyph unicode="&#x2012;" horiz-adv-x="688" d="M72 494v204h544v-204h-544z" />
<glyph unicode="&#x2013;" d="M102 553v162h1065v-162h-1065z" />
<glyph unicode="&#x2014;" horiz-adv-x="1884" d="M141 530v146h1602v-146h-1602z" />
<glyph unicode="&#x2018;" horiz-adv-x="512" d="M78 1149q0 295 323 444l48 -73q-205 -109 -224 -263h35q193 0 193 -172q0 -66 -46.5 -110.5t-117.5 -44.5q-94 0 -152.5 60.5t-58.5 158.5z" />
<glyph unicode="&#x2019;" horiz-adv-x="512" d="M80 1438q0 66 46 110.5t118 44.5q94 0 152.5 -60.5t58.5 -158.5q0 -295 -324 -444l-47 74q205 109 223 262h-35q-193 0 -192 172z" />
<glyph unicode="&#x201a;" horiz-adv-x="2191" d="M152 1370l32 66q94 -45 191 -45q127 0 243 71h56q-23 -123 -23 -264v-487q0 -57 47 -76q61 -23 142 -29v-82h-633v82q113 8 147 21q49 18 49 75v578q-31 -10 -73 -10q-70 0 -178 100zM403 -82l1254 1540l98 -74l-1255 -1540zM1214 2q0 66 39 111t107 45q127 0 127 -109 q0 -45 -25.5 -69.5t-25.5 -34.5q0 -74 120 -74q76 0 135.5 71.5t59.5 184.5q0 129 -90 129q-63 0 -109 -66l-53 93q129 82 156 108q63 63 63 162q0 125 -119 125q-37 0 -61.5 -21.5t-28.5 -42.5q0 -4 12.5 -31.5t12.5 -56.5q0 -113 -133 -112q-115 0 -115 118q0 84 90 152 q104 78 273 78q170 0 258 -76q70 -57 69 -133q0 -172 -264 -213v-18q12 2 33 2q102 0 176 -41q98 -57 98 -170q0 -154 -132 -240t-345 -86q-127 0 -221 53q-106 59 -107 162z" />
<glyph unicode="&#x201c;" horiz-adv-x="972" d="M88 1143q0 303 318 450l47 -73q-207 -109 -228 -273h33q186 0 186 -166q0 -63 -44 -107t-113 -44q-92 0 -145.5 58.5t-53.5 154.5zM549 1143q0 303 317 450l47 -73q-207 -109 -227 -273h33q186 0 186 -166q0 -63 -44 -107t-113 -44q-92 0 -145.5 58.5t-53.5 154.5z" />
<glyph unicode="&#x201d;" horiz-adv-x="972" d="M80 1004q207 109 227 272h-33q-186 0 -186 166q0 63 44 107t114 44q92 0 145 -58.5t53 -154.5q0 -303 -317 -450zM541 1004q207 109 227 272h-33q-186 0 -186 166q0 63 44 107t114 44q92 0 145 -58.5t53 -154.5q0 -303 -317 -450z" />
<glyph unicode="&#x201e;" horiz-adv-x="2191" d="M172 516l25 160q289 174 364.5 276.5t75.5 261.5q0 80 -37 125q-31 39 -80 39q-90 0 -104 -90q37 -74 37 -114q0 -45 -31 -78q-39 -39 -107 -39q-123 0 -122 147q0 86 83 164q104 96 281 96q150 0 251 -74.5t101 -189.5q0 -152 -100 -245t-387 -220v-22h346q66 0 111 63 q20 29 55 115l67 -25l-118 -350h-711zM508 -82l1253 1540l99 -74l-1256 -1540zM1311 2q0 66 39 111t106 45q127 0 127 -109q0 -45 -25.5 -69.5t-25.5 -34.5q0 -74 121 -74q76 0 135 71.5t59 184.5q0 129 -90 129q-63 0 -108 -66l-54 93q129 82 156 108q63 63 64 162 q0 125 -119 125q-37 0 -61.5 -21.5t-28.5 -42.5q0 -4 12 -31.5t12 -56.5q0 -113 -133 -112q-115 0 -115 118q0 84 91 152q104 78 272 78q170 0 258 -76q70 -57 70 -133q0 -172 -265 -213v-18q12 2 33 2q102 0 176 -41q99 -57 99 -170q0 -154 -132.5 -240t-345.5 -86 q-127 0 -221 53q-106 59 -106 162z" />
<glyph unicode="&#x2022;" horiz-adv-x="1036" d="M127 670q0 158 116.5 274.5t274.5 116.5t274.5 -116.5t116.5 -274.5t-115.5 -270.5t-275.5 -112.5t-275.5 112.5t-115.5 270.5z" />
<glyph unicode="&#x2026;" horiz-adv-x="2002" d="M150 160q0 76 54 129t130 53t130 -53t54 -129t-54 -129.5t-130 -53.5t-130 53.5t-54 129.5zM817 160q0 76 54.5 129t129.5 53q76 0 130.5 -53t54.5 -129t-54.5 -129.5t-130.5 -53.5t-130 53.5t-54 129.5zM1485 160q0 76 54 129t130 53t130 -53t54 -129t-54 -129.5 t-130 -53.5t-130 53.5t-54 129.5z" />
<glyph unicode="&#x202f;" horiz-adv-x="394" />
<glyph unicode="&#x2039;" horiz-adv-x="2191" d="M166 707q0 66 39 110.5t106 44.5q127 0 127 -108q0 -45 -25.5 -70t-25.5 -35q0 -74 121 -74q76 0 135 72t59 184q0 129 -90 130q-63 0 -108 -66l-53 92q129 82 155 109q63 63 64 161q0 125 -119 125q-37 0 -61.5 -21.5t-28.5 -41.5q0 -4 12 -31.5t12 -56.5 q0 -113 -133 -113q-115 0 -114 119q0 84 90 152q104 78 272 77q170 0 258 -75q70 -57 70 -134q0 -172 -264 -213v-18q12 2 32 2q102 0 176 -41q99 -57 99 -170q0 -154 -132 -239.5t-345 -85.5q-127 0 -222 53q-106 59 -106 162zM502 -82l1253 1540l98 -74l-1255 -1540z M1309 18q0 90 73 156q57 53 140 76q-172 80 -172 231q0 121 112.5 199t266.5 78q166 0 263 -62.5t97 -167.5q0 -133 -178 -202q219 -78 219 -248q0 -135 -135 -219q-125 -76 -312 -76q-164 0 -269 66.5t-105 168.5zM1526 27q0 -70 47 -113t135 -43q78 0 130 40t52 114 q0 133 -276 186q-88 -57 -88 -184zM1579 539q0 -72 55.5 -113t186.5 -61q65 40 65 165q0 139 -157 140q-68 0 -109 -37t-41 -94z" />
<glyph unicode="&#x203a;" horiz-adv-x="2191" d="M174 678q0 63 37 98t90 35q49 0 84 -26.5t35 -71.5q0 -35 -25 -84q6 -16 39 -35q39 -25 76 -25q94 0 145 80q45 70 45 182q0 90 -51 140q-45 39 -112 39q-147 0 -193 -105l-102 27l135 526h100q57 -57 223 -57q131 0 261 82l51 -45q-127 -207 -482 -207q-80 0 -110 6 l-53 -190q96 59 219 59q176 0 277.5 -80t101.5 -215q0 -145 -125 -235.5t-318 -90.5q-168 0 -262 60q-86 53 -86 133zM498 -82l1253 1540l98 -74l-1255 -1540zM1305 18q0 90 73 156q57 53 140 76q-172 80 -172 231q0 121 112.5 199t265.5 78q166 0 263.5 -62.5t97.5 -167.5 q0 -133 -178 -202q219 -78 219 -248q0 -135 -135 -219q-125 -76 -312 -76q-164 0 -269 66.5t-105 168.5zM1522 27q0 -70 47 -113t135 -43q78 0 130 40t52 114q0 133 -276 186q-88 -57 -88 -184zM1575 539q0 -72 55.5 -113t186.5 -61q65 40 65 165q0 139 -158 140 q-68 0 -108.5 -37t-40.5 -94z" />
<glyph unicode="&#x205f;" horiz-adv-x="493" />
<glyph unicode="&#x2122;" horiz-adv-x="1730" d="M82 1296v226h618v-226h-57q-45 150 -96 160q-41 4 -60 4h-10v-508q0 -33 23 -41q35 -14 82 -18v-55h-379v55q61 4 82.5 13t21.5 42v512h-10q-18 0 -64 -4q-49 -10 -94 -160h-57zM758 838v55q88 6 104 45q12 27 12 106v320q0 94 -112 100v58h303l152 -426l124 338 q8 20 23 88h289v-56q-29 -4 -74 -14q-23 -8 -23 -41v-463q0 -29 25 -41t74 -12v-57h-369v57q55 0 79 14.5t24 38.5v441l-203 -543h-51l-197 577v-372q0 -102 27 -129q37 -23 92 -27v-57h-299z" />
<glyph unicode="&#x25fc;" horiz-adv-x="1105" d="M0 0v1106h1106v-1106h-1106z" />
</font>
</defs>
</svg>
